<?xml version="1.0" encoding="utf-8"?>
<!-- Generator: Adobe Illustrator 15.1.0, SVG Export Plug-In . SVG Version: 6.00 Build 0)  -->
<!DOCTYPE svg PUBLIC "-//W3C//DTD SVG 1.1//EN" "http://www.w3.org/Graphics/SVG/1.1/DTD/svg11.dtd">
<svg version="1.1" id="レイヤー_1" xmlns="http://www.w3.org/2000/svg" xmlns:xlink="http://www.w3.org/1999/xlink" x="0px"
	 y="0px" width="140.34px" height="314.962px" viewBox="0 0 140.34 314.962" enable-background="new 0 0 140.34 314.962"
	 xml:space="preserve">
<g id="補助線_1_">
	
		<line fill="none" stroke="#666464" stroke-width="0.5" stroke-linejoin="bevel" stroke-miterlimit="10" stroke-dasharray="10,1,1,1" x1="25.792" y1="241.623" x2="140.34" y2="241.623"/>
	
		<line fill="none" stroke="#666464" stroke-width="0.5" stroke-linejoin="bevel" stroke-miterlimit="10" stroke-dasharray="10,1,1,1" x1="116.383" y1="58.914" x2="116.383" y2="274.583"/>
	
		<line fill="none" stroke="#666464" stroke-width="0.5" stroke-linejoin="bevel" stroke-miterlimit="10" stroke-dasharray="10,1,1,1" x1="35.516" y1="261.522" x2="140.34" y2="261.522"/>
	
		<line fill="none" stroke="#666464" stroke-width="0.5" stroke-linejoin="bevel" stroke-miterlimit="10" stroke-dasharray="10,1,1,1" x1="0" y1="67.543" x2="21.125" y2="67.543"/>
	
		<line fill="none" stroke="#666464" stroke-width="0.5" stroke-linejoin="bevel" stroke-miterlimit="10" stroke-dasharray="10,1,1,1" x1="17.171" y1="182.096" x2="140.34" y2="182.096"/>
	
		<line fill="none" stroke="#666464" stroke-width="0.5" stroke-linejoin="bevel" stroke-miterlimit="10" stroke-dasharray="10,1,1,1" x1="0" y1="67.543" x2="140.34" y2="67.543"/>
	
		<line fill="none" stroke="#666464" stroke-width="0.5" stroke-linejoin="bevel" stroke-miterlimit="10" stroke-dasharray="10,1,1,1" x1="0" y1="267.136" x2="140.34" y2="267.136"/>
	
		<line fill="none" stroke="#666464" stroke-width="0.5" stroke-linejoin="bevel" stroke-miterlimit="10" stroke-dasharray="10,1,1,1" x1="49.473" y1="4.142" x2="49.474" y2="314.962"/>
	
		<line fill="none" stroke="#666464" stroke-width="0.5" stroke-linejoin="bevel" stroke-miterlimit="10" stroke-dasharray="10,1,1,1" x1="89.158" y1="4.142" x2="89.159" y2="314.962"/>
	
		<line fill="none" stroke="#666464" stroke-width="0.5" stroke-linejoin="bevel" stroke-miterlimit="10" stroke-dasharray="10,1,1,1" x1="69.316" y1="20.685" x2="69.316" y2="314.962"/>
	
		<line fill="none" stroke="#666464" stroke-width="0.5" stroke-linejoin="bevel" stroke-miterlimit="10" stroke-dasharray="10,1,1,1" x1="55.142" y1="20.685" x2="55.143" y2="314.962"/>
	
		<line fill="none" stroke="#666464" stroke-width="0.5" stroke-linejoin="bevel" stroke-miterlimit="10" stroke-dasharray="10,1,1,1" x1="83.489" y1="20.685" x2="83.489" y2="314.962"/>
	
		<line fill="none" stroke="#666464" stroke-width="0.5" stroke-linejoin="bevel" stroke-miterlimit="10" stroke-dasharray="10,1,1,1" x1="52.308" y1="116.828" x2="52.308" y2="13.7"/>
	
		<line fill="none" stroke="#666464" stroke-width="0.5" stroke-linejoin="bevel" stroke-miterlimit="10" stroke-dasharray="10,1,1,1" x1="86.324" y1="116.828" x2="86.324" y2="12.951"/>
	<g>
		
			<line fill="none" stroke="#666464" stroke-width="0.5" stroke-linejoin="bevel" stroke-miterlimit="10" stroke-dasharray="10,1,1,1" x1="140.34" y1="230.285" x2="35.516" y2="230.285"/>
		
			<line fill="none" stroke="#666464" stroke-width="0.5" stroke-linejoin="bevel" stroke-miterlimit="10" stroke-dasharray="10,1,1,1" x1="140.34" y1="227.449" x2="25.792" y2="227.449"/>
	</g>
	
		<line fill="none" stroke="#666464" stroke-width="0.5" stroke-linejoin="bevel" stroke-miterlimit="10" stroke-dasharray="10,1,1,1" x1="42.129" y1="41.999" x2="94.129" y2="41.999"/>
	
		<line fill="none" stroke="#666464" stroke-width="0.5" stroke-linejoin="bevel" stroke-miterlimit="10" stroke-dasharray="10,1,1,1" x1="42.129" y1="292.555" x2="96.629" y2="292.555"/>
	
		<line fill="none" stroke="#666464" stroke-width="0.5" stroke-linejoin="bevel" stroke-miterlimit="10" stroke-dasharray="10,1,1,1" x1="25.422" y1="95.952" x2="140.34" y2="95.952"/>
</g>
<g id="寸法線_1_">
	<g>
		<g>
			<path fill="none" d="M83.489,18.062"/>
		</g>
		<g>
			<path fill="none" d="M55.143,18.062"/>
		</g>
	</g>
	<g>
		<g>
			
				<line fill="none" stroke="#000000" stroke-width="0.5" stroke-linejoin="bevel" x1="32.784" y1="264.921" x2="32.784" y2="243.838"/>
			<g>
				<polygon points="33.479,264.426 32.753,267.136 32.027,264.426 				"/>
			</g>
			<g>
				<polygon points="33.479,244.333 32.753,241.623 32.027,244.333 				"/>
			</g>
		</g>
	</g>
	<g>
		<text transform="matrix(0 -1 1 0 31.4507 256.3398)" font-family="'TimesNewRomanPSMT'" font-size="8">9</text>
		<text transform="matrix(0 -1 1 0 31.4507 256.3398)" font-family="'TimesNewRomanPSMT'" font-size="8">9</text>
	</g>
	<g>
		<g>
			<polyline fill="none" stroke="#000000" stroke-width="0.5" stroke-linejoin="bevel" points="31.449,217.264 44.956,217.264 
				75.766,248.073 			"/>
			<g>
				<polygon points="74.923,248.215 77.353,249.618 75.95,247.188 				"/>
			</g>
		</g>
	</g>
	<g>
		<g>
			
				<line fill="none" stroke="#000000" stroke-width="0.5" stroke-linejoin="bevel" x1="44.26" y1="259.308" x2="44.262" y2="243.838"/>
			<g>
				<polygon points="44.956,258.813 44.23,261.522 43.503,258.813 				"/>
			</g>
			<g>
				<polygon points="44.958,244.334 44.232,241.623 43.505,244.333 				"/>
			</g>
		</g>
	</g>
	<g>
		<text transform="matrix(0 -1 1 0 43.1304 253.5332)" font-family="'TimesNewRomanPSMT'" font-size="8">7</text>
		<text transform="matrix(0 -1 1 0 43.1304 253.5332)" font-family="'TimesNewRomanPSMT'" font-size="8">7</text>
	</g>
	<g>
		<g>
			
				<line fill="none" stroke="#000000" stroke-width="0.5" stroke-linejoin="bevel" x1="21.518" y1="179.881" x2="21.516" y2="69.758"/>
			<g>
				<polygon points="22.214,179.386 21.488,182.096 20.761,179.387 				"/>
			</g>
			<g>
				<polygon points="22.212,70.253 21.486,67.543 20.759,70.254 				"/>
			</g>
		</g>
	</g>
	<g>
		<text transform="matrix(0 -1 1 0 19.7114 128.7788)" font-family="'TimesNewRomanPSMT'" font-size="8">40</text>
		<text transform="matrix(0 -1 1 0 19.7114 128.7788)" font-family="'TimesNewRomanPSMT'" font-size="8">40</text>
	</g>
	<g>
		<g>
			
				<line fill="none" stroke="#000000" stroke-width="0.5" stroke-linejoin="bevel" x1="9.637" y1="264.921" x2="9.637" y2="69.758"/>
			<g>
				<polygon points="10.333,264.426 9.607,267.136 8.88,264.426 				"/>
			</g>
			<g>
				<polygon points="10.333,70.254 9.607,67.543 8.88,70.254 				"/>
			</g>
		</g>
	</g>
	<g>
		<text transform="matrix(0 -1 1 0 6.9146 171.2998)" font-family="'TimesNewRomanPSMT'" font-size="8">70</text>
		<text transform="matrix(0 -1 1 0 6.9146 171.2998)" font-family="'TimesNewRomanPSMT'" font-size="8">70</text>
	</g>
	<g>
		<g>
			
				<line fill="none" stroke="#000000" stroke-width="0.5" stroke-linejoin="bevel" x1="21.518" y1="264.921" x2="21.518" y2="184.311"/>
			<g>
				<polygon points="22.214,264.426 21.488,267.136 20.761,264.426 				"/>
			</g>
			<g>
				<polygon points="22.214,184.807 21.488,182.096 20.761,184.807 				"/>
			</g>
		</g>
	</g>
	<g>
		<text transform="matrix(0 -1 1 0 19.7114 228.5742)" font-family="'TimesNewRomanPSMT'" font-size="8">30</text>
		<text transform="matrix(0 -1 1 0 19.7114 228.5742)" font-family="'TimesNewRomanPSMT'" font-size="8">30</text>
	</g>
	<g>
		<g>
			<g>
				
					<line fill="none" stroke="#000000" stroke-width="0.5" stroke-linejoin="bevel" x1="51.688" y1="7.547" x2="86.944" y2="7.547"/>
				<g>
					<polygon points="52.184,8.243 49.474,7.517 52.184,6.79 					"/>
				</g>
				<g>
					<polygon points="86.448,8.243 89.159,7.517 86.448,6.79 					"/>
				</g>
			</g>
		</g>
		<g>
			<text transform="matrix(1 0 0 1 65.3174 6.6484)" font-family="'TimesNewRomanPSMT'" font-size="8">14</text>
			<text transform="matrix(1 0 0 1 65.3174 6.6484)" font-family="'TimesNewRomanPSMT'" font-size="8">14</text>
		</g>
	</g>
	<g>
		<g>
			
				<line fill="none" stroke="#000000" stroke-width="0.5" stroke-linejoin="bevel" x1="44.28" y1="239.408" x2="44.281" y2="232.5"/>
			<g>
				<polygon points="44.976,238.913 44.25,241.623 43.523,238.912 				"/>
			</g>
			<g>
				<polygon points="44.977,232.996 44.251,230.285 43.524,232.995 				"/>
			</g>
		</g>
	</g>
	<g>
		<text transform="matrix(0 -1 1 0 43.1304 237.9141)" font-family="'TimesNewRomanPSMT'" font-size="8">4</text>
		<text transform="matrix(0 -1 1 0 43.1304 237.9141)" font-family="'TimesNewRomanPSMT'" font-size="8">4</text>
	</g>
	<g>
		<g>
			
				<line fill="none" stroke="#000000" stroke-width="0.5" stroke-linejoin="bevel" x1="32.782" y1="239.408" x2="32.783" y2="229.664"/>
			<g>
				<polygon points="33.478,238.913 32.751,241.623 32.025,238.912 				"/>
			</g>
			<g>
				<polygon points="33.479,230.16 32.753,227.449 32.026,230.159 				"/>
			</g>
		</g>
	</g>
	<g>
		<text transform="matrix(0 -1 1 0 31.4507 236.4961)" font-family="'TimesNewRomanPSMT'" font-size="8">5</text>
		<text transform="matrix(0 -1 1 0 31.4507 236.4961)" font-family="'TimesNewRomanPSMT'" font-size="8">5</text>
	</g>
	<g>
		<g>
			<g>
				
					<line fill="none" stroke="#000000" stroke-width="0.5" stroke-linejoin="bevel" x1="54.523" y1="17.127" x2="84.109" y2="17.127"/>
				<g>
					<polygon points="55.018,17.823 52.308,17.098 55.018,16.371 					"/>
				</g>
				<g>
					<polygon points="83.614,17.823 86.324,17.098 83.614,16.371 					"/>
				</g>
			</g>
		</g>
		<g>
			<text transform="matrix(1 0 0 1 65.3174 16.1084)" font-family="'TimesNewRomanPSMT'" font-size="8">12</text>
			<text transform="matrix(1 0 0 1 65.3174 16.1084)" font-family="'TimesNewRomanPSMT'" font-size="8">12</text>
		</g>
	</g>
	<g>
		<g>
			
				<line fill="none" stroke="#000000" stroke-width="0.5" stroke-linejoin="bevel" x1="32.782" y1="93.737" x2="32.783" y2="69.758"/>
			<g>
				<polygon points="33.478,93.242 32.751,95.952 32.025,93.242 				"/>
			</g>
			<g>
				<polygon points="33.479,70.254 32.753,67.543 32.026,70.253 				"/>
			</g>
		</g>
	</g>
	<g>
		<text transform="matrix(0 -1 1 0 31.4497 85.7065)" font-family="'TimesNewRomanPSMT'" font-size="8">10</text>
		<text transform="matrix(0 -1 1 0 31.4497 85.7065)" font-family="'TimesNewRomanPSMT'" font-size="8">10</text>
	</g>
	<text transform="matrix(1 0 0 1 33.1592 216.2744)" font-family="'TimesNewRomanPSMT'" font-size="8">Φ8</text>
	<g>
		<g>
			<polyline fill="none" stroke="#000000" stroke-width="0.5" stroke-linejoin="bevel" points="33.449,19.421 46.956,19.421 
				77.766,50.231 			"/>
			<g>
				<polygon points="76.923,50.373 79.353,51.776 77.95,49.345 				"/>
			</g>
		</g>
	</g>
	<text transform="matrix(1 0 0 1 32.7832 17.2319)" font-family="'TimesNewRomanPSMT'" font-size="8">Φ10</text>
</g>
<g id="部品A_1_">
	<g>
		<circle fill="none" stroke="#000000" stroke-linejoin="bevel" stroke-miterlimit="10" cx="69.316" cy="292.554" r="19.843"/>
		<circle fill="none" stroke="#000000" stroke-linejoin="bevel" stroke-miterlimit="10" cx="69.316" cy="292.555" r="14.173"/>
	</g>
	<path fill="none" stroke="#000000" stroke-width="0.5" stroke-linejoin="bevel" stroke-miterlimit="10" d="M55.142,65.28"/>
	<path fill="none" stroke="#000000" stroke-width="0.5" stroke-linejoin="bevel" stroke-miterlimit="10" d="M83.489,65.28"/>
	<circle fill="none" stroke="#000000" stroke-linejoin="bevel" stroke-miterlimit="10" cx="69.316" cy="241.623" r="11.339"/>
	<circle fill="none" stroke="#000000" stroke-linejoin="bevel" stroke-miterlimit="10" cx="69.316" cy="241.623" r="14.173"/>
	<g>
		<polyline fill="none" stroke="#000000" stroke-miterlimit="10" points="136.225,227.449 133.391,230.283 99.375,230.285 
			99.375,230.283 96.541,227.449 		"/>
		<polyline fill="none" stroke="#000000" stroke-miterlimit="10" points="96.541,255.797 99.375,252.963 133.391,252.961 
			133.391,252.963 136.225,255.797 		"/>
	</g>
	<polygon fill="none" points="116.383,190.278 130.557,182.096 130.557,67.606 102.209,67.606 102.209,182.096 	"/>
	<polygon fill="none" stroke="#000000" stroke-linecap="round" stroke-linejoin="bevel" stroke-miterlimit="10" points="
		130.557,67.606 130.557,182.096 116.383,190.278 102.209,182.096 102.209,67.606 	"/>
	<polygon fill="none" stroke="#000000" stroke-linecap="round" stroke-linejoin="bevel" stroke-miterlimit="10" points="
		133.391,67.606 136.225,95.952 136.225,261.467 130.556,267.136 102.209,267.136 96.541,261.467 96.541,95.952 99.375,67.606 	"/>
	<polygon fill="none" points="69.315,190.278 83.489,182.096 83.489,67.606 55.142,67.606 55.142,182.096 	"/>
	<polygon fill="none" stroke="#000000" stroke-linecap="round" stroke-linejoin="bevel" stroke-miterlimit="10" points="
		83.489,67.606 83.489,182.096 69.315,190.278 55.142,182.096 55.142,67.606 	"/>
	<polygon fill="none" stroke="#000000" stroke-linecap="round" stroke-linejoin="bevel" stroke-miterlimit="10" points="
		86.323,67.606 89.158,95.952 89.158,261.467 83.489,267.136 55.142,267.136 49.473,261.467 49.473,95.952 52.308,67.606 	"/>
	<g>
		<circle fill="none" stroke="#000000" stroke-linejoin="bevel" stroke-miterlimit="10" cx="69.316" cy="42.005" r="19.843"/>
		<circle fill="none" stroke="#000000" stroke-linejoin="bevel" stroke-miterlimit="10" cx="69.316" cy="42.006" r="14.173"/>
		<circle fill="none" stroke="#000000" cx="69.316" cy="42.006" r="17.008"/>
	</g>
</g>
</svg>
