<?xml version="1.0" encoding="utf-8"?>
<!-- Generator: Adobe Illustrator 15.1.0, SVG Export Plug-In . SVG Version: 6.00 Build 0)  -->
<!DOCTYPE svg PUBLIC "-//W3C//DTD SVG 1.1//EN" "http://www.w3.org/Graphics/SVG/1.1/DTD/svg11.dtd">
<svg version="1.1" id="レイヤー_1" xmlns="http://www.w3.org/2000/svg" xmlns:xlink="http://www.w3.org/1999/xlink" x="0px"
	 y="0px" width="132.821px" height="404.467px" viewBox="0 0 132.821 404.467" enable-background="new 0 0 132.821 404.467"
	 xml:space="preserve">
<g>
	<g id="補助線_3_">
		
			<line fill="none" stroke="#666464" stroke-width="0.5" stroke-linejoin="bevel" stroke-miterlimit="10" stroke-dasharray="10,1,1,1" x1="78.997" y1="400.046" x2="78.996" y2="7.638"/>
		
			<line fill="none" stroke="#666464" stroke-width="0.5" stroke-linejoin="bevel" stroke-miterlimit="10" stroke-dasharray="10,1,1,1" x1="39.312" y1="400.046" x2="39.311" y2="6.332"/>
		
			<line fill="none" stroke="#666464" stroke-width="0.5" stroke-linejoin="bevel" stroke-miterlimit="10" stroke-dasharray="10,1,1,1" x1="59.154" y1="384.074" x2="59.154" y2="0"/>
		
			<line fill="none" stroke="#666464" stroke-width="0.5" stroke-linejoin="bevel" stroke-miterlimit="10" stroke-dasharray="10,1,1,1" x1="73.328" y1="380.879" x2="73.327" y2="8.113"/>
		
			<line fill="none" stroke="#666464" stroke-width="0.5" stroke-linejoin="bevel" stroke-miterlimit="10" stroke-dasharray="10,1,1,1" x1="44.981" y1="380.879" x2="44.98" y2="7.015"/>
		
			<line fill="none" stroke="#666464" stroke-width="0.5" stroke-linejoin="bevel" stroke-miterlimit="10" stroke-dasharray="10,1,1,1" x1="76.162" y1="286.777" x2="76.162" y2="390.488"/>
		
			<line fill="none" stroke="#666464" stroke-width="0.5" stroke-linejoin="bevel" stroke-miterlimit="10" stroke-dasharray="10,1,1,1" x1="42.146" y1="286.777" x2="42.146" y2="391.236"/>
		
			<line fill="none" stroke="#666464" stroke-width="0.5" stroke-linejoin="bevel" stroke-miterlimit="10" stroke-dasharray="10,1,1,1" x1="86.341" y1="361.605" x2="34.341" y2="361.605"/>
		
			<line fill="none" stroke="#666464" stroke-width="0.5" stroke-linejoin="bevel" stroke-miterlimit="10" stroke-dasharray="10,1,1,1" x1="1.979" y1="52.72" x2="132.821" y2="52.72"/>
		
			<line fill="none" stroke="#666464" stroke-width="0.5" stroke-linejoin="bevel" stroke-miterlimit="10" stroke-dasharray="10,1,1,1" x1="11.366" y1="143.429" x2="132.821" y2="143.429"/>
		
			<line fill="none" stroke="#000000" stroke-width="0.5" stroke-linejoin="bevel" stroke-miterlimit="10" x1="106.641" y1="53.086" x2="106.641" y2="333.88"/>
		
			<line fill="none" stroke="#666464" stroke-width="0.5" stroke-linejoin="bevel" stroke-miterlimit="10" stroke-dasharray="10,1,1,1" x1="85.154" y1="26.677" x2="33.154" y2="26.677"/>
		
			<line fill="none" stroke="#666464" stroke-width="0.5" stroke-linejoin="bevel" stroke-miterlimit="10" stroke-dasharray="10,1,1,1" x1="1.979" y1="336.185" x2="132.821" y2="336.185"/>
		
			<line fill="none" stroke="#666464" stroke-width="0.5" stroke-linejoin="bevel" stroke-miterlimit="10" stroke-dasharray="10,1,1,1" x1="132.821" y1="307.839" x2="27.15" y2="307.839"/>
		
			<line fill="none" stroke="#666464" stroke-width="0.5" stroke-linejoin="bevel" stroke-miterlimit="10" stroke-dasharray="10,1,1,1" x1="132.821" y1="222.799" x2="12.776" y2="222.799"/>
		<g>
			<path fill="none" d="M44.98,385.551"/>
		</g>
		<g>
			<path fill="none" d="M73.327,385.551"/>
		</g>
		
			<line fill="none" stroke="#666464" stroke-width="0.5" stroke-linejoin="bevel" stroke-miterlimit="10" stroke-dasharray="10,1,1,1" x1="132.821" y1="171.936" x2="27.15" y2="171.936"/>
		
			<line fill="none" stroke="#666464" stroke-width="0.5" stroke-linejoin="bevel" stroke-miterlimit="10" stroke-dasharray="10,1,1,1" x1="132.821" y1="186.109" x2="27.15" y2="186.109"/>
		
			<line fill="none" stroke="#666464" stroke-width="0.5" stroke-linejoin="bevel" stroke-miterlimit="10" stroke-dasharray="10,1,1,1" x1="27.15" y1="137.759" x2="132.821" y2="137.759"/>
		
			<line fill="none" stroke="#666464" stroke-width="0.5" stroke-linejoin="bevel" stroke-miterlimit="10" stroke-dasharray="10,1,1,1" x1="48.654" y1="179.023" x2="132.821" y2="179.022"/>
	</g>
	<g>
		<g id="寸法線_3_">
			<g>
				<g>
					
						<line fill="none" stroke="#000000" stroke-width="0.5" stroke-linejoin="bevel" x1="22.209" y1="141.214" x2="22.205" y2="54.935"/>
					<g>
						<polygon points="22.905,140.718 22.18,143.429 21.453,140.719 						"/>
					</g>
					<g>
						<polygon points="22.901,55.43 22.175,52.72 21.448,55.431 						"/>
					</g>
				</g>
			</g>
			<g>
				<text transform="matrix(0 -1 1 0 20.6997 99.9063)" font-family="'TimesNewRomanPSMT'" font-size="8">32</text>
				<text transform="matrix(0 -1 1 0 20.6997 99.9063)" font-family="'TimesNewRomanPSMT'" font-size="8">32</text>
			</g>
			<g>
				<rect x="15.257" y="36.774" fill="none" width="16.167" height="7"/>
				<text transform="matrix(1 0 0 1 15.2568 43.4229)" font-family="'TimesNewRomanPSMT'" font-size="8">M10</text>
				<rect x="15.257" y="36.774" fill="none" width="16.167" height="7"/>
				<text transform="matrix(1 0 0 1 15.2568 43.4229)" font-family="'TimesNewRomanPSMT'" font-size="8">M10</text>
			</g>
			<g>
				<g>
					
						<line fill="none" stroke="#000000" stroke-width="0.5" stroke-linejoin="bevel" x1="9.535" y1="54.935" x2="9.535" y2="333.97"/>
					<g>
						<polygon points="8.839,55.431 9.565,52.72 10.292,55.431 						"/>
					</g>
					<g>
						<polygon points="8.839,333.475 9.565,336.185 10.292,333.475 						"/>
					</g>
				</g>
			</g>
			<g>
				<text transform="matrix(0 -1 1 0 6.6484 200.4111)" font-family="'TimesNewRomanPSMT'" font-size="8">100</text>
				<text transform="matrix(0 -1 1 0 6.6484 200.4111)" font-family="'TimesNewRomanPSMT'" font-size="8">100</text>
			</g>
			<g>
				<g>
					
						<line fill="none" stroke="#000000" stroke-width="0.5" stroke-linejoin="bevel" x1="76.781" y1="395.19" x2="41.526" y2="395.19"/>
					<g>
						<polygon points="76.286,394.494 78.996,395.221 76.286,395.947 						"/>
					</g>
					<g>
						<polygon points="42.021,394.494 39.312,395.221 42.021,395.947 						"/>
					</g>
				</g>
			</g>
			<g>
				<text transform="matrix(1 0 0 1 55.1655 402.0137)" font-family="'TimesNewRomanPSMT'" font-size="8">14</text>
				<text transform="matrix(1 0 0 1 55.1655 402.0137)" font-family="'TimesNewRomanPSMT'" font-size="8">14</text>
			</g>
			<g>
				<g>
					
						<line fill="none" stroke="#000000" stroke-width="0.5" stroke-linejoin="bevel" x1="73.947" y1="386.484" x2="44.361" y2="386.484"/>
					<g>
						<polygon points="73.451,385.789 76.162,386.515 73.451,387.241 						"/>
					</g>
					<g>
						<polygon points="44.856,385.789 42.146,386.515 44.856,387.241 						"/>
					</g>
				</g>
			</g>
			<g>
				<text transform="matrix(1 0 0 1 55.1655 393.4268)" font-family="'TimesNewRomanPSMT'" font-size="8">12</text>
				<text transform="matrix(1 0 0 1 55.1655 393.4268)" font-family="'TimesNewRomanPSMT'" font-size="8">12</text>
			</g>
			<g>
				<g>
					<polyline fill="none" stroke="#000000" stroke-width="0.5" stroke-linejoin="bevel" points="95.021,384.19 81.514,384.19 
						50.704,353.381 					"/>
					<g>
						<polygon points="51.546,353.239 49.117,351.836 50.52,354.267 						"/>
					</g>
				</g>
			</g>
			<text transform="matrix(1 0 0 1 82.1426 382.6055)" font-family="'TimesNewRomanPSMT'" font-size="8">Φ10</text>
			<g>
				<g>
					
						<line fill="none" stroke="#000000" stroke-width="0.5" stroke-linejoin="bevel" x1="33.101" y1="334.033" x2="33.102" y2="310.054"/>
					<g>
						<polygon points="33.796,333.537 33.07,336.248 32.344,333.537 						"/>
					</g>
					<g>
						<polygon points="33.798,310.549 33.072,307.839 32.345,310.549 						"/>
					</g>
				</g>
			</g>
			<g>
				<text transform="matrix(0 -1 1 0 31.7769 326.002)" font-family="'TimesNewRomanPSMT'" font-size="8">10</text>
				<text transform="matrix(0 -1 1 0 31.7769 326.002)" font-family="'TimesNewRomanPSMT'" font-size="8">10</text>
			</g>
			<g>
				<g>
					
						<line fill="none" stroke="#000000" stroke-width="0.5" stroke-linejoin="bevel" x1="22.211" y1="334.551" x2="22.209" y2="225.014"/>
					<g>
						<polygon points="22.907,334.055 22.181,336.766 21.454,334.056 						"/>
					</g>
					<g>
						<polygon points="22.905,225.509 22.179,222.799 21.452,225.51 						"/>
					</g>
				</g>
			</g>
			<g>
				<text transform="matrix(0 -1 1 0 20.4087 283.4492)" font-family="'TimesNewRomanPSMT'" font-size="8">40</text>
				<text transform="matrix(0 -1 1 0 20.4087 283.4492)" font-family="'TimesNewRomanPSMT'" font-size="8">40</text>
			</g>
			<g>
				<g>
					<polyline fill="none" stroke="#000000" stroke-width="0.5" stroke-linejoin="bevel" points="19.237,206.408 31.768,206.408 
						52.577,185.6 					"/>
					<g>
						<polygon points="52.718,186.442 54.121,184.013 51.691,185.415 						"/>
					</g>
				</g>
			</g>
			<text transform="matrix(1 0 0 1 20.8364 205.0264)" font-family="'TimesNewRomanPSMT'" font-size="8">Φ5</text>
			<g>
				<g>
					<polyline fill="none" stroke="#000000" stroke-width="0.5" stroke-linejoin="bevel" points="11.366,44.385 31.657,44.441 
						43.707,56.491 					"/>
					<g>
						<polygon points="42.865,56.632 45.294,58.035 43.892,55.605 						"/>
					</g>
				</g>
			</g>
			<g>
				<g>
					
						<line fill="none" stroke="#000000" stroke-width="0.5" stroke-linejoin="bevel" x1="33.105" y1="135.544" x2="33.101" y2="54.935"/>
					<g>
						<polygon points="33.801,135.049 33.075,137.759 32.348,135.049 						"/>
					</g>
					<g>
						<polygon points="33.796,55.43 33.07,52.72 32.344,55.431 						"/>
					</g>
				</g>
			</g>
			<g>
				<text transform="matrix(0 -1 1 0 31.8237 99.1982)" font-family="'TimesNewRomanPSMT'" font-size="8">30</text>
				<text transform="matrix(0 -1 1 0 31.8237 99.1982)" font-family="'TimesNewRomanPSMT'" font-size="8">30</text>
			</g>
		</g>
		<g id="部品B_2_">
			<g>
				<polygon fill="none" stroke="#000000" stroke-linecap="round" stroke-linejoin="bevel" stroke-miterlimit="10" points="
					120.813,336.185 120.813,222.799 106.641,214.616 92.467,222.799 92.467,336.185 				"/>
				<g>
					<polygon fill="none" stroke="#000000" stroke-linecap="round" stroke-linejoin="bevel" stroke-miterlimit="10" points="
						117.623,136.918 120.813,135.077 117.623,133.236 120.813,131.395 117.623,129.553 120.813,127.712 117.623,125.872 
						120.813,124.031 117.623,122.19 120.813,120.349 117.623,118.508 120.813,116.667 117.623,114.826 120.813,112.985 
						117.623,111.144 120.813,109.302 117.623,107.461 120.813,105.621 117.623,103.78 120.813,101.939 117.623,100.097 
						120.813,98.256 117.623,96.416 120.813,94.574 117.623,92.733 120.813,90.892 117.623,89.051 120.813,87.21 117.623,85.369 
						120.813,83.528 117.623,81.687 120.813,79.845 117.623,78.004 120.813,76.164 117.623,74.323 120.813,72.482 117.623,70.64 
						120.813,68.799 117.623,66.958 120.813,65.117 117.623,63.276 120.813,61.435 117.623,59.594 120.813,57.753 117.623,55.912 
						120.813,54.071 118.473,52.72 93.316,52.72 95.656,54.071 92.467,55.912 95.656,57.753 92.467,59.594 95.656,61.435 
						92.467,63.276 95.656,65.117 92.467,66.958 95.656,68.799 92.467,70.64 95.656,72.482 92.467,74.323 95.656,76.164 
						92.467,78.004 95.656,79.845 92.467,81.687 95.656,83.528 92.467,85.369 95.656,87.21 92.467,89.051 95.656,90.892 
						92.467,92.733 95.656,94.574 92.467,96.416 95.656,98.256 92.467,100.097 95.656,101.939 92.467,103.78 95.656,105.621 
						92.467,107.461 95.656,109.302 92.467,111.144 95.656,112.985 92.467,114.826 95.656,116.667 92.467,118.508 95.656,120.349 
						92.467,122.19 95.656,124.031 92.467,125.872 95.656,127.712 92.467,129.553 95.656,131.395 92.467,133.236 95.656,135.077 
						92.467,136.918 93.924,137.759 92.467,137.759 92.467,143.429 120.813,143.429 120.813,137.759 119.08,137.759 					"/>
					
						<line fill="none" stroke="#000000" stroke-linecap="round" stroke-linejoin="bevel" stroke-miterlimit="10" x1="92.467" y1="55.912" x2="120.813" y2="57.753"/>
					
						<line fill="none" stroke="#000000" stroke-linecap="round" stroke-linejoin="bevel" stroke-miterlimit="10" x1="92.467" y1="133.236" x2="120.813" y2="135.077"/>
					
						<line fill="none" stroke="#000000" stroke-linecap="round" stroke-linejoin="bevel" stroke-miterlimit="10" x1="92.787" y1="129.553" x2="120.576" y2="131.531"/>
					
						<line fill="none" stroke="#000000" stroke-linecap="round" stroke-linejoin="bevel" stroke-miterlimit="10" x1="92.467" y1="125.872" x2="120.813" y2="127.712"/>
					
						<line fill="none" stroke="#000000" stroke-linecap="round" stroke-linejoin="bevel" stroke-miterlimit="10" x1="92.467" y1="122.19" x2="120.813" y2="124.031"/>
					
						<line fill="none" stroke="#000000" stroke-linecap="round" stroke-linejoin="bevel" stroke-miterlimit="10" x1="92.467" y1="118.508" x2="120.813" y2="120.349"/>
					
						<line fill="none" stroke="#000000" stroke-linecap="round" stroke-linejoin="bevel" stroke-miterlimit="10" x1="92.756" y1="114.659" x2="120.813" y2="116.667"/>
					
						<line fill="none" stroke="#000000" stroke-linecap="round" stroke-linejoin="bevel" stroke-miterlimit="10" x1="92.912" y1="111.144" x2="120.813" y2="112.985"/>
					
						<line fill="none" stroke="#000000" stroke-linecap="round" stroke-linejoin="bevel" stroke-miterlimit="10" x1="92.768" y1="107.288" x2="120.449" y2="109.512"/>
					
						<line fill="none" stroke="#000000" stroke-linecap="round" stroke-linejoin="bevel" stroke-miterlimit="10" x1="92.467" y1="103.78" x2="120.506" y2="105.797"/>
					
						<line fill="none" stroke="#000000" stroke-linecap="round" stroke-linejoin="bevel" stroke-miterlimit="10" x1="92.467" y1="100.097" x2="120.813" y2="101.939"/>
					
						<line fill="none" stroke="#000000" stroke-linecap="round" stroke-linejoin="bevel" stroke-miterlimit="10" x1="92.467" y1="96.416" x2="120.498" y2="98.075"/>
					
						<line fill="none" stroke="#000000" stroke-linecap="round" stroke-linejoin="bevel" stroke-miterlimit="10" x1="92.467" y1="92.733" x2="120.813" y2="94.574"/>
					
						<line fill="none" stroke="#000000" stroke-linecap="round" stroke-linejoin="bevel" stroke-miterlimit="10" x1="92.467" y1="89.051" x2="120.813" y2="90.892"/>
					
						<line fill="none" stroke="#000000" stroke-linecap="round" stroke-linejoin="bevel" stroke-miterlimit="10" x1="92.467" y1="85.369" x2="120.813" y2="87.21"/>
					
						<line fill="none" stroke="#000000" stroke-linecap="round" stroke-linejoin="bevel" stroke-miterlimit="10" x1="92.467" y1="81.687" x2="120.813" y2="83.528"/>
					
						<line fill="none" stroke="#000000" stroke-linecap="round" stroke-linejoin="bevel" stroke-miterlimit="10" x1="92.467" y1="78.004" x2="120.813" y2="79.845"/>
					
						<line fill="none" stroke="#000000" stroke-linecap="round" stroke-linejoin="bevel" stroke-miterlimit="10" x1="92.467" y1="74.323" x2="120.813" y2="76.164"/>
					
						<line fill="none" stroke="#000000" stroke-linecap="round" stroke-linejoin="bevel" stroke-miterlimit="10" x1="92.467" y1="70.64" x2="120.813" y2="72.482"/>
					
						<line fill="none" stroke="#000000" stroke-linecap="round" stroke-linejoin="bevel" stroke-miterlimit="10" x1="92.739" y1="66.801" x2="120.813" y2="68.799"/>
					
						<line fill="none" stroke="#000000" stroke-linecap="round" stroke-linejoin="bevel" stroke-miterlimit="10" x1="92.68" y1="63.398" x2="120.813" y2="65.117"/>
					
						<line fill="none" stroke="#000000" stroke-linecap="round" stroke-linejoin="bevel" stroke-miterlimit="10" x1="92.467" y1="59.594" x2="120.813" y2="61.435"/>
				</g>
				<g>
					
						<line fill="none" stroke="#000000" stroke-linejoin="bevel" stroke-miterlimit="10" x1="126.481" y1="186.109" x2="86.797" y2="186.109"/>
					
						<line fill="none" stroke="#000000" stroke-linejoin="bevel" stroke-miterlimit="10" x1="86.797" y1="171.936" x2="126.481" y2="171.936"/>
				</g>
				<polygon fill="none" stroke="#000000" stroke-linecap="round" stroke-linejoin="bevel" stroke-miterlimit="10" points="
					123.646,336.185 126.481,307.839 126.481,143.412 86.797,143.412 86.797,307.839 89.631,336.185 				"/>
			</g>
			<g>
				<circle fill="none" stroke="#000000" stroke-linejoin="bevel" stroke-miterlimit="10" cx="59.154" cy="179.023" r="7.087"/>
				<polygon fill="none" stroke="#000000" stroke-linecap="round" stroke-linejoin="bevel" stroke-miterlimit="10" points="
					76.162,336.185 78.996,307.839 78.996,143.412 39.312,143.412 39.312,307.839 42.146,336.185 				"/>
				<polygon fill="none" stroke="#000000" stroke-linecap="round" stroke-linejoin="bevel" stroke-miterlimit="10" points="
					73.328,336.185 73.328,222.799 59.154,214.616 44.981,222.799 44.981,336.185 				"/>
				<g>
					<polygon fill="none" stroke="#000000" stroke-linecap="round" stroke-linejoin="bevel" stroke-miterlimit="10" points="
						70.138,136.918 73.327,135.077 70.138,133.236 73.327,131.395 70.138,129.553 73.327,127.712 70.138,125.872 73.327,124.031 
						70.138,122.19 73.327,120.349 70.138,118.508 73.327,116.667 70.138,114.826 73.327,112.985 70.138,111.144 73.327,109.302 
						70.138,107.461 73.327,105.621 70.138,103.78 73.327,101.939 70.138,100.097 73.327,98.256 70.138,96.416 73.327,94.574 
						70.138,92.733 73.327,90.892 70.138,89.051 73.327,87.21 70.138,85.369 73.327,83.528 70.138,81.687 73.327,79.845 
						70.138,78.004 73.327,76.164 70.138,74.323 73.327,72.482 70.138,70.64 73.327,68.799 70.138,66.958 73.327,65.117 
						70.138,63.276 73.327,61.435 70.138,59.594 73.327,57.753 70.138,55.912 73.327,54.071 70.986,52.72 45.831,52.72 
						48.171,54.071 44.981,55.912 48.171,57.753 44.981,59.594 48.171,61.435 44.981,63.276 48.171,65.117 44.981,66.958 
						48.171,68.799 44.981,70.64 48.171,72.482 44.981,74.323 48.171,76.164 44.981,78.004 48.171,79.845 44.981,81.687 
						48.171,83.528 44.981,85.369 48.171,87.21 44.981,89.051 48.171,90.892 44.981,92.733 48.171,94.574 44.981,96.416 
						48.171,98.256 44.981,100.097 48.171,101.939 44.981,103.78 48.171,105.621 44.981,107.461 48.171,109.302 44.981,111.144 
						48.171,112.985 44.981,114.826 48.171,116.667 44.981,118.508 48.171,120.349 44.981,122.19 48.171,124.031 44.981,125.872 
						48.171,127.712 44.981,129.553 48.171,131.395 44.981,133.236 48.171,135.077 44.981,136.918 46.438,137.759 44.981,137.759 
						44.981,143.429 73.328,143.429 73.328,137.759 71.595,137.759 					"/>
					
						<line fill="none" stroke="#000000" stroke-linecap="round" stroke-linejoin="bevel" stroke-miterlimit="10" x1="44.981" y1="55.912" x2="73.327" y2="57.753"/>
					
						<line fill="none" stroke="#000000" stroke-linecap="round" stroke-linejoin="bevel" stroke-miterlimit="10" x1="44.981" y1="133.236" x2="73.327" y2="135.077"/>
					
						<line fill="none" stroke="#000000" stroke-linecap="round" stroke-linejoin="bevel" stroke-miterlimit="10" x1="45.301" y1="129.553" x2="73.091" y2="131.531"/>
					
						<line fill="none" stroke="#000000" stroke-linecap="round" stroke-linejoin="bevel" stroke-miterlimit="10" x1="44.981" y1="125.872" x2="73.327" y2="127.712"/>
					
						<line fill="none" stroke="#000000" stroke-linecap="round" stroke-linejoin="bevel" stroke-miterlimit="10" x1="44.981" y1="122.19" x2="73.327" y2="124.031"/>
					
						<line fill="none" stroke="#000000" stroke-linecap="round" stroke-linejoin="bevel" stroke-miterlimit="10" x1="44.981" y1="118.508" x2="73.327" y2="120.349"/>
					
						<line fill="none" stroke="#000000" stroke-linecap="round" stroke-linejoin="bevel" stroke-miterlimit="10" x1="45.271" y1="114.659" x2="73.327" y2="116.667"/>
					
						<line fill="none" stroke="#000000" stroke-linecap="round" stroke-linejoin="bevel" stroke-miterlimit="10" x1="45.426" y1="111.144" x2="73.327" y2="112.985"/>
					
						<line fill="none" stroke="#000000" stroke-linecap="round" stroke-linejoin="bevel" stroke-miterlimit="10" x1="45.282" y1="107.288" x2="72.965" y2="109.512"/>
					
						<line fill="none" stroke="#000000" stroke-linecap="round" stroke-linejoin="bevel" stroke-miterlimit="10" x1="44.981" y1="103.78" x2="73.021" y2="105.797"/>
					
						<line fill="none" stroke="#000000" stroke-linecap="round" stroke-linejoin="bevel" stroke-miterlimit="10" x1="44.981" y1="100.097" x2="73.327" y2="101.939"/>
					
						<line fill="none" stroke="#000000" stroke-linecap="round" stroke-linejoin="bevel" stroke-miterlimit="10" x1="44.981" y1="96.416" x2="73.012" y2="98.075"/>
					
						<line fill="none" stroke="#000000" stroke-linecap="round" stroke-linejoin="bevel" stroke-miterlimit="10" x1="44.981" y1="92.733" x2="73.327" y2="94.574"/>
					
						<line fill="none" stroke="#000000" stroke-linecap="round" stroke-linejoin="bevel" stroke-miterlimit="10" x1="44.981" y1="89.051" x2="73.327" y2="90.892"/>
					
						<line fill="none" stroke="#000000" stroke-linecap="round" stroke-linejoin="bevel" stroke-miterlimit="10" x1="44.981" y1="85.369" x2="73.327" y2="87.21"/>
					
						<line fill="none" stroke="#000000" stroke-linecap="round" stroke-linejoin="bevel" stroke-miterlimit="10" x1="44.981" y1="81.687" x2="73.327" y2="83.528"/>
					
						<line fill="none" stroke="#000000" stroke-linecap="round" stroke-linejoin="bevel" stroke-miterlimit="10" x1="44.981" y1="78.004" x2="73.327" y2="79.845"/>
					
						<line fill="none" stroke="#000000" stroke-linecap="round" stroke-linejoin="bevel" stroke-miterlimit="10" x1="73.327" y1="76.164" x2="44.981" y2="74.323"/>
					
						<line fill="none" stroke="#000000" stroke-linecap="round" stroke-linejoin="bevel" stroke-miterlimit="10" x1="44.981" y1="70.64" x2="73.327" y2="72.482"/>
					
						<line fill="none" stroke="#000000" stroke-linecap="round" stroke-linejoin="bevel" stroke-miterlimit="10" x1="45.254" y1="66.801" x2="73.327" y2="68.799"/>
					
						<line fill="none" stroke="#000000" stroke-linecap="round" stroke-linejoin="bevel" stroke-miterlimit="10" x1="45.194" y1="63.398" x2="73.327" y2="65.117"/>
					
						<line fill="none" stroke="#000000" stroke-linecap="round" stroke-linejoin="bevel" stroke-miterlimit="10" x1="44.981" y1="59.594" x2="73.327" y2="61.435"/>
				</g>
				<g>
					<circle fill="none" stroke="#000000" stroke-linejoin="bevel" stroke-miterlimit="10" cx="59.154" cy="26.676" r="19.843"/>
					<circle fill="none" stroke="#000000" stroke-linejoin="bevel" stroke-miterlimit="10" cx="59.155" cy="26.677" r="14.174"/>
				</g>
				<g>
					<circle fill="none" stroke="#000000" stroke-linejoin="bevel" stroke-miterlimit="10" cx="59.154" cy="361.606" r="19.843"/>
					<circle fill="none" stroke="#000000" stroke-linejoin="bevel" stroke-miterlimit="10" cx="59.153" cy="361.605" r="14.173"/>
					<circle fill="none" stroke="#000000" cx="59.154" cy="361.605" r="17.008"/>
				</g>
			</g>
		</g>
	</g>
</g>
</svg>
