<?xml version="1.0" encoding="utf-8"?>
<!-- Generator: Adobe Illustrator 15.1.0, SVG Export Plug-In . SVG Version: 6.00 Build 0)  -->
<!DOCTYPE svg PUBLIC "-//W3C//DTD SVG 1.1//EN" "http://www.w3.org/Graphics/SVG/1.1/DTD/svg11.dtd">
<svg version="1.1" id="レイヤー_1" xmlns="http://www.w3.org/2000/svg" xmlns:xlink="http://www.w3.org/1999/xlink" x="0px"
	 y="0px" width="132.47px" height="403.618px" viewBox="0 0 132.47 403.618" enable-background="new 0 0 132.47 403.618"
	 xml:space="preserve">
<g>
	<g>
		<g id="寸法線_2_">
			<g>
				<g>
					<g>
						<polyline fill="none" stroke="#000000" stroke-width="0.5" stroke-linejoin="bevel" points="25.499,216.717 38.03,216.717 
							52.855,201.947 						"/>
						<g>
							<polygon points="52.996,202.79 54.403,200.362 51.971,201.76 							"/>
						</g>
					</g>
				</g>
				<text transform="matrix(1 0 0 1 27.1025 215.3354)" font-family="'TimesNewRomanPSMT'" font-size="8">Φ5</text>
			</g>
			<g>
				<g>
					<rect x="1.788" y="37.536" fill="none" width="16.167" height="7"/>
					<text transform="matrix(1 0 0 1 1.7881 44.1851)" font-family="'TimesNewRomanPSMT'" font-size="8">M10</text>
					<rect x="1.788" y="37.536" fill="none" width="16.167" height="7"/>
					<text transform="matrix(1 0 0 1 1.7881 44.1851)" font-family="'TimesNewRomanPSMT'" font-size="8">M10</text>
				</g>
				<g>
					<g>
						<polyline fill="none" stroke="#000000" stroke-width="0.5" stroke-linejoin="bevel" points="10.416,45.247 27.39,45.247 
							43.863,61.72 						"/>
						<g>
							<polygon points="43.021,61.862 45.451,63.265 44.049,60.834 							"/>
						</g>
					</g>
				</g>
			</g>
			<g>
				<g>
					
						<line fill="none" stroke="#000000" stroke-width="0.5" stroke-linejoin="bevel" x1="22.213" y1="168.009" x2="22.209" y2="53.896"/>
					<g>
						<polygon points="22.908,167.514 22.183,170.224 21.456,167.514 						"/>
					</g>
					<g>
						<polygon points="22.905,54.392 22.179,51.682 21.452,54.392 						"/>
					</g>
				</g>
			</g>
			<g>
				<text transform="matrix(0 -1 1 0 20.7002 98.8677)" font-family="'TimesNewRomanPSMT'" font-size="8">42</text>
				<text transform="matrix(0 -1 1 0 20.7002 98.8677)" font-family="'TimesNewRomanPSMT'" font-size="8">42</text>
			</g>
			<g>
				<g>
					
						<line fill="none" stroke="#000000" stroke-width="0.5" stroke-linejoin="bevel" x1="9.539" y1="53.896" x2="9.539" y2="332.931"/>
					<g>
						<polygon points="8.844,54.392 9.569,51.682 10.296,54.392 						"/>
					</g>
					<g>
						<polygon points="8.844,332.436 9.569,335.146 10.296,332.436 						"/>
					</g>
				</g>
			</g>
			<g>
				<text transform="matrix(0 -1 1 0 6.6484 199.3726)" font-family="'TimesNewRomanPSMT'" font-size="8">100</text>
				<text transform="matrix(0 -1 1 0 6.6484 199.3726)" font-family="'TimesNewRomanPSMT'" font-size="8">100</text>
			</g>
			<g>
				<g>
					
						<line fill="none" stroke="#000000" stroke-width="0.5" stroke-linejoin="bevel" x1="33.104" y1="332.995" x2="33.105" y2="309.015"/>
					<g>
						<polygon points="33.801,332.499 33.074,335.209 32.348,332.499 						"/>
					</g>
					<g>
						<polygon points="33.801,309.51 33.075,306.8 32.349,309.51 						"/>
					</g>
				</g>
			</g>
			<g>
				<text transform="matrix(0 -1 1 0 31.7773 324.9634)" font-family="'TimesNewRomanPSMT'" font-size="8">10</text>
				<text transform="matrix(0 -1 1 0 31.7773 324.9634)" font-family="'TimesNewRomanPSMT'" font-size="8">10</text>
			</g>
			<g>
				<g>
					
						<line fill="none" stroke="#000000" stroke-width="0.5" stroke-linejoin="bevel" x1="22.215" y1="333.512" x2="22.213" y2="223.975"/>
					<g>
						<polygon points="22.91,333.016 22.185,335.727 21.458,333.017 						"/>
					</g>
					<g>
						<polygon points="22.909,224.47 22.183,221.76 21.456,224.471 						"/>
					</g>
				</g>
			</g>
			<g>
				<text transform="matrix(0 -1 1 0 20.4092 282.4106)" font-family="'TimesNewRomanPSMT'" font-size="8">40</text>
				<text transform="matrix(0 -1 1 0 20.4092 282.4106)" font-family="'TimesNewRomanPSMT'" font-size="8">40</text>
			</g>
			<g>
				<g>
					
						<line fill="none" stroke="#000000" stroke-width="0.5" stroke-linejoin="bevel" x1="33.108" y1="168.867" x2="33.104" y2="59.566"/>
					<g>
						<polygon points="33.804,168.371 33.078,171.082 32.352,168.372 						"/>
					</g>
					<g>
						<polygon points="33.801,60.061 33.074,57.351 32.348,60.062 						"/>
					</g>
				</g>
			</g>
			<g>
				<text transform="matrix(0 -1 1 0 31.8237 98.1597)" font-family="'TimesNewRomanPSMT'" font-size="8">40</text>
				<text transform="matrix(0 -1 1 0 31.8237 98.1597)" font-family="'TimesNewRomanPSMT'" font-size="8">40</text>
			</g>
			<g>
				<g>
					<g>
						<polyline fill="none" stroke="#000000" stroke-width="0.5" stroke-linejoin="bevel" points="95.784,382.86 82.254,382.86 
							51.396,352.049 						"/>
						<g>
							<polygon points="52.237,351.907 49.807,350.506 51.211,352.936 							"/>
						</g>
					</g>
				</g>
				<text transform="matrix(1 0 0 1 82.835 381.2759)" font-family="'TimesNewRomanPSMT'" font-size="8">Φ10</text>
			</g>
			<g>
				<g>
					
						<line fill="none" stroke="#000000" stroke-width="0.5" stroke-linejoin="bevel" x1="77.286" y1="394.342" x2="41.987" y2="394.342"/>
					<g>
						<polygon points="76.791,393.647 79.501,394.373 76.791,395.099 						"/>
					</g>
					<g>
						<polygon points="42.482,393.647 39.772,394.373 42.482,395.099 						"/>
					</g>
				</g>
			</g>
			<g>
				<text transform="matrix(1 0 0 1 55.6313 401.1646)" font-family="'TimesNewRomanPSMT'" font-size="8">14</text>
				<text transform="matrix(1 0 0 1 55.6313 401.1646)" font-family="'TimesNewRomanPSMT'" font-size="8">14</text>
			</g>
			<g>
				<g>
					
						<line fill="none" stroke="#000000" stroke-width="0.5" stroke-linejoin="bevel" x1="74.448" y1="385.636" x2="44.822" y2="385.636"/>
					<g>
						<polygon points="73.953,384.94 76.663,385.667 73.953,386.393 						"/>
					</g>
					<g>
						<polygon points="45.317,384.94 42.607,385.667 45.317,386.393 						"/>
					</g>
				</g>
			</g>
			<g>
				<text transform="matrix(1 0 0 1 55.6313 392.5776)" font-family="'TimesNewRomanPSMT'" font-size="8">12</text>
				<text transform="matrix(1 0 0 1 55.6313 392.5776)" font-family="'TimesNewRomanPSMT'" font-size="8">12</text>
			</g>
			<g>
				<g>
					<g>
						<polyline fill="none" stroke="#000000" stroke-width="0.5" stroke-linejoin="bevel" points="95.206,48.094 81.676,48.094 
							50.818,17.283 						"/>
						<g>
							<polygon points="51.66,17.141 49.229,15.74 50.634,18.169 							"/>
						</g>
					</g>
				</g>
				<text transform="matrix(1 0 0 1 82.2578 46.5083)" font-family="'TimesNewRomanPSMT'" font-size="8">Φ10</text>
			</g>
		</g>
		<g id="補助線_2_">
			
				<line fill="none" stroke="#666464" stroke-width="0.5" stroke-linejoin="bevel" stroke-miterlimit="10" stroke-dasharray="10,1,1,1" x1="79.51" y1="399.007" x2="79.502" y2="3.136"/>
			
				<line fill="none" stroke="#666464" stroke-width="0.5" stroke-linejoin="bevel" stroke-miterlimit="10" stroke-dasharray="10,1,1,1" x1="105.896" y1="43.726" x2="105.78" y2="340.725"/>
			
				<line fill="none" stroke="#666464" stroke-width="0.5" stroke-linejoin="bevel" stroke-miterlimit="10" stroke-dasharray="10,1,1,1" x1="59.626" y1="0" x2="59.626" y2="383.152"/>
			<path fill="none" stroke="#000000" stroke-linecap="round" stroke-linejoin="bevel" stroke-miterlimit="10" d="M73.823,165.019"
				/>
			<path fill="none" stroke="#000000" stroke-linecap="round" stroke-linejoin="bevel" stroke-miterlimit="10" d="M48.624,165.019"
				/>
			<path fill="none" stroke="#000000" stroke-linecap="round" stroke-linejoin="bevel" stroke-miterlimit="10" d="M73.823,165.019"
				/>
			
				<line fill="none" stroke="#666464" stroke-width="0.5" stroke-linejoin="bevel" stroke-miterlimit="10" stroke-dasharray="10,1,1,1" x1="3.918" y1="51.682" x2="132.47" y2="51.682"/>
			
				<line fill="none" stroke="#666464" stroke-width="0.5" stroke-linejoin="bevel" stroke-miterlimit="10" stroke-dasharray="10,1,1,1" x1="3.918" y1="335.209" x2="132.47" y2="335.184"/>
			
				<line fill="none" stroke="#666464" stroke-width="0.5" stroke-linejoin="bevel" stroke-miterlimit="10" stroke-dasharray="10,1,1,1" x1="27.087" y1="306.8" x2="132.47" y2="306.8"/>
			
				<line fill="none" stroke="#666464" stroke-width="0.5" stroke-linejoin="bevel" stroke-miterlimit="10" stroke-dasharray="10,1,1,1" x1="132.47" y1="188.247" x2="34.309" y2="188.247"/>
			
				<line fill="none" stroke="#666464" stroke-width="0.5" stroke-linejoin="bevel" stroke-miterlimit="10" stroke-dasharray="10,1,1,1" x1="15.413" y1="221.76" x2="132.47" y2="221.76"/>
			
				<line fill="none" stroke="#666464" stroke-width="0.5" stroke-linejoin="bevel" stroke-miterlimit="10" stroke-dasharray="10,1,1,1" x1="34.309" y1="202.424" x2="132.47" y2="202.424"/>
			
				<line fill="none" stroke="#666464" stroke-width="0.5" stroke-linejoin="bevel" stroke-miterlimit="10" stroke-dasharray="10,1,1,1" x1="48.488" y1="195.335" x2="132.47" y2="195.335"/>
			
				<line fill="none" stroke="#666464" stroke-width="0.5" stroke-linejoin="bevel" stroke-miterlimit="10" stroke-dasharray="10,1,1,1" x1="132.47" y1="170.737" x2="19.15" y2="170.737"/>
			
				<line fill="none" stroke="#666464" stroke-width="0.5" stroke-linejoin="bevel" stroke-miterlimit="10" stroke-dasharray="10,1,1,1" x1="27.087" y1="57.351" x2="132.47" y2="57.351"/>
			
				<line fill="none" stroke="#666464" stroke-width="0.5" stroke-linejoin="bevel" stroke-miterlimit="10" stroke-dasharray="10,1,1,1" x1="85.667" y1="360.567" x2="33.612" y2="360.567"/>
			
				<line fill="none" stroke="#666464" stroke-width="0.5" stroke-linejoin="bevel" stroke-miterlimit="10" stroke-dasharray="10,1,1,1" x1="45.445" y1="382.899" x2="45.438" y2="3.141"/>
			
				<line fill="none" stroke="#666464" stroke-width="0.5" stroke-linejoin="bevel" stroke-miterlimit="10" stroke-dasharray="10,1,1,1" x1="73.833" y1="382.899" x2="73.825" y2="3.136"/>
			
				<line fill="none" stroke="#666464" stroke-width="0.5" stroke-linejoin="bevel" stroke-miterlimit="10" stroke-dasharray="10,1,1,1" x1="42.604" y1="281.841" x2="42.604" y2="389.657"/>
			
				<line fill="none" stroke="#666464" stroke-width="0.5" stroke-linejoin="bevel" stroke-miterlimit="10" stroke-dasharray="10,1,1,1" x1="39.77" y1="399.007" x2="39.758" y2="3.136"/>
			
				<line fill="none" stroke="#666464" stroke-width="0.5" stroke-linejoin="bevel" stroke-miterlimit="10" stroke-dasharray="10,1,1,1" x1="76.66" y1="281.841" x2="76.66" y2="390.198"/>
			
				<line fill="none" stroke="#666464" stroke-width="0.5" stroke-linejoin="bevel" stroke-miterlimit="10" stroke-dasharray="10,1,1,1" x1="85.667" y1="25.64" x2="33.612" y2="25.64"/>
		</g>
	</g>
	<g id="部品C_xFF08_雌ネジ_xFF09__3_">
		<g>
			
				<ellipse fill="none" stroke="#000000" stroke-linejoin="bevel" stroke-miterlimit="10" cx="59.634" cy="25.639" rx="19.876" ry="19.843"/>
			
				<ellipse fill="none" stroke="#000000" stroke-linejoin="bevel" stroke-miterlimit="10" cx="59.635" cy="25.64" rx="14.198" ry="14.173"/>
		</g>
		<polygon fill="none" stroke="#000000" stroke-linecap="round" stroke-linejoin="bevel" stroke-miterlimit="10" points="
			120.06,335.209 120.06,221.823 105.887,213.641 91.705,221.823 91.705,335.209 		"/>
		<g>
			
				<line fill="none" stroke="#000000" stroke-linejoin="bevel" stroke-miterlimit="10" x1="125.729" y1="202.424" x2="86.026" y2="202.424"/>
			
				<line fill="none" stroke="#000000" stroke-linejoin="bevel" stroke-miterlimit="10" x1="86.026" y1="188.247" x2="125.729" y2="188.247"/>
		</g>
		<polygon fill="none" stroke="#000000" stroke-linecap="round" stroke-linejoin="bevel" stroke-miterlimit="10" points="
			122.917,335.209 125.751,306.864 125.751,51.682 86.026,51.682 86.026,306.864 88.876,335.209 		"/>
		
			<ellipse fill="none" stroke="#000000" stroke-linejoin="bevel" stroke-miterlimit="10" cx="59.626" cy="195.333" rx="7.099" ry="7.091"/>
		<polygon fill="none" stroke="#000000" stroke-linecap="round" stroke-linejoin="bevel" stroke-miterlimit="10" points="
			73.823,335.209 73.823,221.823 59.626,213.641 45.43,221.823 45.43,335.209 		"/>
		<g>
			<g>
				<polyline fill="none" stroke="#000000" stroke-linecap="round" stroke-linejoin="bevel" stroke-miterlimit="10" points="
					73.823,139.245 70.628,137.403 73.823,135.562 70.628,133.721 73.823,131.88 70.628,130.04 73.823,128.198 70.628,126.357 
					73.823,124.516 70.628,122.674 73.823,120.833 70.628,118.993 73.823,117.152 70.628,115.311 73.823,113.469 70.628,111.628 
					73.823,109.788 70.628,107.946 73.823,106.105 70.628,104.264 73.823,102.423 70.628,100.583 73.823,98.741 70.628,96.9 
					73.823,95.059 70.628,93.217 73.823,91.376 70.628,89.536 73.823,87.695 70.628,85.854 73.823,84.012 70.628,82.171 
					73.823,80.331 70.628,78.489 73.823,76.648 70.628,74.807 73.823,72.966 70.628,71.125 73.823,69.285 70.628,67.444 
					73.823,65.603 70.628,63.761 73.823,61.92 70.628,60.08 73.823,58.238 72.363,57.397 73.823,57.397 73.823,51.682 45.43,51.682 
					45.43,57.397 47.165,57.397 48.624,58.238 45.43,60.08 48.624,61.92 45.43,63.761 48.624,65.603 45.43,67.444 48.624,69.285 
					45.43,71.125 48.624,72.966 45.43,74.807 48.624,76.648 45.43,78.489 48.624,80.331 45.43,82.171 48.624,84.012 45.43,85.854 
					48.624,87.695 45.43,89.536 48.624,91.376 45.43,93.217 48.624,95.059 45.43,96.9 48.624,98.741 45.43,100.583 48.624,102.423 
					45.43,104.264 48.624,106.105 45.43,107.946 48.624,109.788 45.43,111.628 48.624,113.469 45.43,115.311 48.624,117.152 
					45.43,118.993 48.624,120.833 45.43,122.674 48.624,124.516 45.43,126.357 48.624,128.198 45.43,130.04 48.624,131.88 
					45.43,133.721 48.624,135.562 45.43,137.403 48.624,139.245 				"/>
				
					<line fill="none" stroke="#000000" stroke-linecap="round" stroke-linejoin="bevel" stroke-miterlimit="10" x1="73.823" y1="139.245" x2="45.43" y2="137.403"/>
				
					<line fill="none" stroke="#000000" stroke-linecap="round" stroke-linejoin="bevel" stroke-miterlimit="10" x1="73.823" y1="61.92" x2="45.43" y2="60.08"/>
				
					<line fill="none" stroke="#000000" stroke-linecap="round" stroke-linejoin="bevel" stroke-miterlimit="10" x1="73.502" y1="65.603" x2="45.666" y2="63.625"/>
				
					<line fill="none" stroke="#000000" stroke-linecap="round" stroke-linejoin="bevel" stroke-miterlimit="10" x1="73.823" y1="69.285" x2="45.43" y2="67.444"/>
				
					<line fill="none" stroke="#000000" stroke-linecap="round" stroke-linejoin="bevel" stroke-miterlimit="10" x1="73.823" y1="72.966" x2="45.43" y2="71.125"/>
				
					<line fill="none" stroke="#000000" stroke-linecap="round" stroke-linejoin="bevel" stroke-miterlimit="10" x1="73.823" y1="76.648" x2="45.43" y2="74.807"/>
				
					<line fill="none" stroke="#000000" stroke-linecap="round" stroke-linejoin="bevel" stroke-miterlimit="10" x1="73.533" y1="80.498" x2="45.43" y2="78.489"/>
				
					<line fill="none" stroke="#000000" stroke-linecap="round" stroke-linejoin="bevel" stroke-miterlimit="10" x1="73.377" y1="84.012" x2="45.43" y2="82.171"/>
				
					<line fill="none" stroke="#000000" stroke-linecap="round" stroke-linejoin="bevel" stroke-miterlimit="10" x1="73.521" y1="87.869" x2="45.794" y2="85.645"/>
				
					<line fill="none" stroke="#000000" stroke-linecap="round" stroke-linejoin="bevel" stroke-miterlimit="10" x1="73.823" y1="91.376" x2="45.736" y2="89.359"/>
				
					<line fill="none" stroke="#000000" stroke-linecap="round" stroke-linejoin="bevel" stroke-miterlimit="10" x1="73.823" y1="95.059" x2="45.43" y2="93.217"/>
				
					<line fill="none" stroke="#000000" stroke-linecap="round" stroke-linejoin="bevel" stroke-miterlimit="10" x1="73.823" y1="98.741" x2="45.744" y2="97.082"/>
				
					<line fill="none" stroke="#000000" stroke-linecap="round" stroke-linejoin="bevel" stroke-miterlimit="10" x1="73.823" y1="102.423" x2="45.43" y2="100.583"/>
				
					<line fill="none" stroke="#000000" stroke-linecap="round" stroke-linejoin="bevel" stroke-miterlimit="10" x1="73.823" y1="106.105" x2="45.43" y2="104.264"/>
				
					<line fill="none" stroke="#000000" stroke-linecap="round" stroke-linejoin="bevel" stroke-miterlimit="10" x1="73.823" y1="109.788" x2="45.43" y2="107.946"/>
				
					<line fill="none" stroke="#000000" stroke-linecap="round" stroke-linejoin="bevel" stroke-miterlimit="10" x1="73.823" y1="113.469" x2="45.43" y2="111.628"/>
				
					<line fill="none" stroke="#000000" stroke-linecap="round" stroke-linejoin="bevel" stroke-miterlimit="10" x1="73.823" y1="117.152" x2="45.43" y2="115.311"/>
				
					<line fill="none" stroke="#000000" stroke-linecap="round" stroke-linejoin="bevel" stroke-miterlimit="10" x1="73.823" y1="120.833" x2="45.43" y2="118.993"/>
				
					<line fill="none" stroke="#000000" stroke-linecap="round" stroke-linejoin="bevel" stroke-miterlimit="10" x1="73.823" y1="124.516" x2="45.43" y2="122.674"/>
				
					<line fill="none" stroke="#000000" stroke-linecap="round" stroke-linejoin="bevel" stroke-miterlimit="10" x1="73.549" y1="128.355" x2="45.43" y2="126.357"/>
				
					<line fill="none" stroke="#000000" stroke-linecap="round" stroke-linejoin="bevel" stroke-miterlimit="10" x1="73.609" y1="131.758" x2="45.43" y2="130.04"/>
				
					<line fill="none" stroke="#000000" stroke-linecap="round" stroke-linejoin="bevel" stroke-miterlimit="10" x1="73.823" y1="135.562" x2="45.43" y2="133.721"/>
				<g>
					<polyline fill="none" stroke="#000000" stroke-linecap="round" stroke-linejoin="bevel" stroke-miterlimit="10" points="
						73.823,153.973 70.628,152.131 73.823,150.291 70.628,148.45 73.823,146.609 70.628,144.768 73.823,142.926 70.628,141.085 
						73.823,139.245 					"/>
					<polyline fill="none" stroke="#000000" stroke-linecap="round" stroke-linejoin="bevel" stroke-miterlimit="10" points="
						48.624,139.245 45.43,141.085 48.624,142.926 45.43,144.768 48.624,146.609 45.43,148.45 48.624,150.291 45.43,152.131 
						48.624,153.973 					"/>
					
						<line fill="none" stroke="#000000" stroke-linecap="round" stroke-linejoin="bevel" stroke-miterlimit="10" x1="73.823" y1="153.973" x2="45.43" y2="152.131"/>
					<path fill="none" stroke="#000000" stroke-linecap="round" stroke-linejoin="bevel" stroke-miterlimit="10" d="M73.823,139.245
						"/>
					
						<line fill="none" stroke="#000000" stroke-linecap="round" stroke-linejoin="bevel" stroke-miterlimit="10" x1="73.549" y1="143.083" x2="45.43" y2="141.085"/>
					
						<line fill="none" stroke="#000000" stroke-linecap="round" stroke-linejoin="bevel" stroke-miterlimit="10" x1="73.609" y1="146.486" x2="45.43" y2="144.768"/>
					
						<line fill="none" stroke="#000000" stroke-linecap="round" stroke-linejoin="bevel" stroke-miterlimit="10" x1="73.823" y1="150.291" x2="45.43" y2="148.45"/>
				</g>
				<g>
					<polyline fill="none" stroke="#000000" stroke-linecap="round" stroke-linejoin="bevel" stroke-miterlimit="10" points="
						73.823,165.019 70.628,163.178 73.823,161.337 70.628,159.497 73.823,157.655 70.628,155.814 73.823,153.973 					"/>
					<polyline fill="none" stroke="#000000" stroke-linecap="round" stroke-linejoin="bevel" stroke-miterlimit="10" points="
						48.624,153.973 45.43,155.814 48.624,157.655 45.43,159.497 48.624,161.337 45.43,163.178 48.624,165.019 					"/>
					<path fill="none" stroke="#000000" stroke-linecap="round" stroke-linejoin="bevel" stroke-miterlimit="10" d="M73.823,153.973
						"/>
					
						<line fill="none" stroke="#000000" stroke-linecap="round" stroke-linejoin="bevel" stroke-miterlimit="10" x1="73.549" y1="157.812" x2="45.43" y2="155.814"/>
					
						<line fill="none" stroke="#000000" stroke-linecap="round" stroke-linejoin="bevel" stroke-miterlimit="10" x1="73.609" y1="161.215" x2="45.43" y2="159.497"/>
					<polyline fill="none" stroke="#000000" stroke-linecap="round" stroke-linejoin="bevel" stroke-miterlimit="10" points="
						45.43,163.178 73.823,165.019 73.823,165.113 					"/>
				</g>
			</g>
			<polyline fill="none" stroke="#000000" stroke-linejoin="bevel" stroke-miterlimit="10" points="46.922,169.717 53.096,173.278 
				59.627,177.042 66.158,173.278 73.619,168.978 			"/>
			<g>
				<polyline fill="none" stroke="#000000" stroke-linecap="round" stroke-linejoin="bevel" stroke-miterlimit="10" points="
					73.823,168.701 70.628,166.86 73.823,165.019 				"/>
				<polyline fill="none" stroke="#000000" stroke-linecap="round" stroke-linejoin="bevel" stroke-miterlimit="10" points="
					48.624,165.019 45.43,166.86 48.624,168.701 46.949,169.666 				"/>
				<path fill="none" stroke="#000000" stroke-linecap="round" stroke-linejoin="bevel" stroke-miterlimit="10" d="M73.823,165.019"
					/>
				
					<line fill="none" stroke="#000000" stroke-linecap="round" stroke-linejoin="bevel" stroke-miterlimit="10" x1="73.549" y1="168.858" x2="45.43" y2="166.86"/>
			</g>
		</g>
		<g>
			<g>
				<polyline fill="none" stroke="#000000" stroke-linecap="round" stroke-linejoin="bevel" stroke-miterlimit="10" points="
					120.077,139.245 116.888,137.403 120.077,135.562 116.888,133.721 120.077,131.88 116.888,130.04 120.077,128.198 
					116.888,126.357 120.077,124.516 116.888,122.674 120.077,120.833 116.888,118.993 120.077,117.152 116.888,115.311 
					120.077,113.469 116.888,111.628 120.077,109.788 116.888,107.946 120.077,106.105 116.888,104.264 120.077,102.423 
					116.888,100.583 120.077,98.741 116.888,96.9 120.077,95.059 116.888,93.217 120.077,91.376 116.888,89.536 120.077,87.695 
					116.888,85.854 120.077,84.012 116.888,82.171 120.077,80.331 116.888,78.489 120.077,76.648 116.888,74.807 120.077,72.966 
					116.888,71.125 120.077,69.285 116.888,67.444 120.077,65.603 116.888,63.761 120.077,61.92 116.888,60.08 120.077,58.238 
					118.62,57.397 120.077,57.397 120.077,51.682 91.709,51.682 91.709,57.397 93.448,57.397 94.91,58.238 91.709,60.08 
					94.91,61.92 91.709,63.761 94.91,65.603 91.709,67.444 94.91,69.285 91.709,71.125 94.91,72.966 91.709,74.807 94.91,76.648 
					91.709,78.489 94.91,80.331 91.709,82.171 94.91,84.012 91.709,85.854 94.91,87.695 91.709,89.536 94.91,91.376 91.709,93.217 
					94.91,95.059 91.709,96.9 94.91,98.741 91.709,100.583 94.91,102.423 91.709,104.264 94.91,106.105 91.709,107.946 
					94.91,109.788 91.709,111.628 94.91,113.469 91.709,115.311 94.91,117.152 91.709,118.993 94.91,120.833 91.709,122.674 
					94.91,124.516 91.709,126.357 94.91,128.198 91.709,130.04 94.91,131.88 91.709,133.721 94.91,135.562 91.709,137.403 
					94.91,139.245 				"/>
				
					<line fill="none" stroke="#000000" stroke-linecap="round" stroke-linejoin="bevel" stroke-miterlimit="10" x1="120.077" y1="139.245" x2="91.709" y2="137.403"/>
				
					<line fill="none" stroke="#000000" stroke-linecap="round" stroke-linejoin="bevel" stroke-miterlimit="10" x1="120.077" y1="61.92" x2="91.709" y2="60.08"/>
				
					<line fill="none" stroke="#000000" stroke-linecap="round" stroke-linejoin="bevel" stroke-miterlimit="10" x1="119.757" y1="65.603" x2="91.947" y2="63.625"/>
				
					<line fill="none" stroke="#000000" stroke-linecap="round" stroke-linejoin="bevel" stroke-miterlimit="10" x1="120.077" y1="69.285" x2="91.709" y2="67.444"/>
				
					<line fill="none" stroke="#000000" stroke-linecap="round" stroke-linejoin="bevel" stroke-miterlimit="10" x1="120.077" y1="72.966" x2="91.709" y2="71.125"/>
				
					<line fill="none" stroke="#000000" stroke-linecap="round" stroke-linejoin="bevel" stroke-miterlimit="10" x1="120.077" y1="76.648" x2="91.709" y2="74.807"/>
				
					<line fill="none" stroke="#000000" stroke-linecap="round" stroke-linejoin="bevel" stroke-miterlimit="10" x1="119.788" y1="80.498" x2="91.709" y2="78.489"/>
				
					<line fill="none" stroke="#000000" stroke-linecap="round" stroke-linejoin="bevel" stroke-miterlimit="10" x1="119.632" y1="84.012" x2="91.709" y2="82.171"/>
				
					<line fill="none" stroke="#000000" stroke-linecap="round" stroke-linejoin="bevel" stroke-miterlimit="10" x1="119.776" y1="87.869" x2="92.075" y2="85.645"/>
				
					<line fill="none" stroke="#000000" stroke-linecap="round" stroke-linejoin="bevel" stroke-miterlimit="10" x1="120.077" y1="91.376" x2="92.018" y2="89.359"/>
				
					<line fill="none" stroke="#000000" stroke-linecap="round" stroke-linejoin="bevel" stroke-miterlimit="10" x1="120.077" y1="95.059" x2="91.709" y2="93.217"/>
				
					<line fill="none" stroke="#000000" stroke-linecap="round" stroke-linejoin="bevel" stroke-miterlimit="10" x1="120.077" y1="98.741" x2="92.025" y2="97.082"/>
				
					<line fill="none" stroke="#000000" stroke-linecap="round" stroke-linejoin="bevel" stroke-miterlimit="10" x1="120.077" y1="102.423" x2="91.709" y2="100.583"/>
				
					<line fill="none" stroke="#000000" stroke-linecap="round" stroke-linejoin="bevel" stroke-miterlimit="10" x1="120.077" y1="106.105" x2="91.709" y2="104.264"/>
				
					<line fill="none" stroke="#000000" stroke-linecap="round" stroke-linejoin="bevel" stroke-miterlimit="10" x1="120.077" y1="109.788" x2="91.709" y2="107.946"/>
				
					<line fill="none" stroke="#000000" stroke-linecap="round" stroke-linejoin="bevel" stroke-miterlimit="10" x1="120.077" y1="113.469" x2="91.709" y2="111.628"/>
				
					<line fill="none" stroke="#000000" stroke-linecap="round" stroke-linejoin="bevel" stroke-miterlimit="10" x1="120.077" y1="117.152" x2="91.709" y2="115.311"/>
				
					<line fill="none" stroke="#000000" stroke-linecap="round" stroke-linejoin="bevel" stroke-miterlimit="10" x1="120.077" y1="120.833" x2="91.709" y2="118.993"/>
				
					<line fill="none" stroke="#000000" stroke-linecap="round" stroke-linejoin="bevel" stroke-miterlimit="10" x1="120.077" y1="124.516" x2="91.709" y2="122.674"/>
				
					<line fill="none" stroke="#000000" stroke-linecap="round" stroke-linejoin="bevel" stroke-miterlimit="10" x1="119.804" y1="128.355" x2="91.709" y2="126.357"/>
				
					<line fill="none" stroke="#000000" stroke-linecap="round" stroke-linejoin="bevel" stroke-miterlimit="10" x1="119.864" y1="131.758" x2="91.709" y2="130.04"/>
				
					<line fill="none" stroke="#000000" stroke-linecap="round" stroke-linejoin="bevel" stroke-miterlimit="10" x1="120.077" y1="135.562" x2="91.709" y2="133.721"/>
				<g>
					<polyline fill="none" stroke="#000000" stroke-linecap="round" stroke-linejoin="bevel" stroke-miterlimit="10" points="
						120.077,153.973 116.888,152.131 120.077,150.291 116.888,148.45 120.077,146.609 116.888,144.768 120.077,142.926 
						116.888,141.085 120.077,139.245 					"/>
					<polyline fill="none" stroke="#000000" stroke-linecap="round" stroke-linejoin="bevel" stroke-miterlimit="10" points="
						94.91,139.245 91.709,141.085 94.91,142.926 91.709,144.768 94.91,146.609 91.709,148.45 94.91,150.291 91.709,152.131 
						94.91,153.973 					"/>
					
						<line fill="none" stroke="#000000" stroke-linecap="round" stroke-linejoin="bevel" stroke-miterlimit="10" x1="120.077" y1="153.973" x2="91.709" y2="152.131"/>
					<path fill="none" stroke="#000000" stroke-linecap="round" stroke-linejoin="bevel" stroke-miterlimit="10" d="
						M120.077,139.245"/>
					
						<line fill="none" stroke="#000000" stroke-linecap="round" stroke-linejoin="bevel" stroke-miterlimit="10" x1="119.804" y1="143.083" x2="91.709" y2="141.085"/>
					
						<line fill="none" stroke="#000000" stroke-linecap="round" stroke-linejoin="bevel" stroke-miterlimit="10" x1="119.864" y1="146.486" x2="91.709" y2="144.768"/>
					
						<line fill="none" stroke="#000000" stroke-linecap="round" stroke-linejoin="bevel" stroke-miterlimit="10" x1="120.077" y1="150.291" x2="91.709" y2="148.45"/>
				</g>
				<g>
					<polyline fill="none" stroke="#000000" stroke-linecap="round" stroke-linejoin="bevel" stroke-miterlimit="10" points="
						120.077,165.019 116.888,163.178 120.077,161.337 116.888,159.497 120.077,157.655 116.888,155.814 120.077,153.973 					"/>
					<polyline fill="none" stroke="#000000" stroke-linecap="round" stroke-linejoin="bevel" stroke-miterlimit="10" points="
						94.91,153.973 91.709,155.814 94.91,157.655 91.709,159.497 94.91,161.337 91.709,163.178 94.91,165.019 					"/>
					<path fill="none" stroke="#000000" stroke-linecap="round" stroke-linejoin="bevel" stroke-miterlimit="10" d="
						M120.077,153.973"/>
					
						<line fill="none" stroke="#000000" stroke-linecap="round" stroke-linejoin="bevel" stroke-miterlimit="10" x1="119.804" y1="157.812" x2="91.709" y2="155.814"/>
					
						<line fill="none" stroke="#000000" stroke-linecap="round" stroke-linejoin="bevel" stroke-miterlimit="10" x1="119.864" y1="161.215" x2="91.709" y2="159.497"/>
					<polyline fill="none" stroke="#000000" stroke-linecap="round" stroke-linejoin="bevel" stroke-miterlimit="10" points="
						91.709,163.178 120.077,165.019 120.077,165.113 					"/>
				</g>
			</g>
			<polyline fill="none" stroke="#000000" stroke-linejoin="bevel" stroke-miterlimit="10" points="93.204,169.717 99.384,173.278 
				105.905,177.042 112.425,173.278 119.874,168.978 			"/>
			<g>
				<polyline fill="none" stroke="#000000" stroke-linecap="round" stroke-linejoin="bevel" stroke-miterlimit="10" points="
					120.077,168.701 116.888,166.86 120.077,165.019 				"/>
				<polyline fill="none" stroke="#000000" stroke-linecap="round" stroke-linejoin="bevel" stroke-miterlimit="10" points="
					94.91,165.019 91.709,166.86 94.91,168.701 93.232,169.666 				"/>
				<path fill="none" stroke="#000000" stroke-linecap="round" stroke-linejoin="bevel" stroke-miterlimit="10" d="M120.077,165.019
					"/>
				
					<line fill="none" stroke="#000000" stroke-linecap="round" stroke-linejoin="bevel" stroke-miterlimit="10" x1="119.804" y1="168.858" x2="91.709" y2="166.86"/>
			</g>
		</g>
		<path fill="none" stroke="#000000" stroke-linejoin="bevel" stroke-miterlimit="10" d="M79.499,360.567
			c0,10.959-8.898,19.843-19.876,19.843c-10.97,0-19.854-8.884-19.854-19.843c0-10.958,8.884-19.842,19.854-19.842
			C70.601,340.725,79.499,349.609,79.499,360.567z"/>
		<path fill="none" stroke="#000000" stroke-linejoin="bevel" stroke-miterlimit="10" d="M73.821,360.568
			c0,7.827-6.356,14.173-14.198,14.173c-7.838,0-14.184-6.346-14.184-14.173c0-7.828,6.346-14.174,14.184-14.174
			C67.465,346.394,73.821,352.74,73.821,360.568z"/>
		<path fill="none" stroke="#000000" d="M76.66,360.567c0,9.394-7.629,17.008-17.037,17.008c-9.404,0-17.019-7.614-17.019-17.008
			c0-9.393,7.614-17.008,17.019-17.008C69.031,343.559,76.66,351.174,76.66,360.567z"/>
		<polygon fill="none" stroke="#000000" stroke-linecap="round" stroke-linejoin="bevel" stroke-miterlimit="10" points="
			76.663,335.209 79.502,306.864 79.502,51.682 39.75,51.682 39.75,306.864 42.595,335.209 		"/>
	</g>
</g>
</svg>
