<?xml version="1.0" encoding="utf-8"?>
<!-- Generator: Adobe Illustrator 15.1.0, SVG Export Plug-In . SVG Version: 6.00 Build 0)  -->
<!DOCTYPE svg PUBLIC "-//W3C//DTD SVG 1.1//EN" "http://www.w3.org/Graphics/SVG/1.1/DTD/svg11.dtd">
<svg version="1.1" id="レイヤー_1" xmlns="http://www.w3.org/2000/svg" xmlns:xlink="http://www.w3.org/1999/xlink" x="0px"
	 y="0px" width="139.872px" height="410.352px" viewBox="0 0 139.872 410.352" enable-background="new 0 0 139.872 410.352"
	 xml:space="preserve">
<g>
	<g id="補助線_7_">
		
			<line fill="none" stroke="#666464" stroke-width="0.5" stroke-linejoin="bevel" stroke-miterlimit="10" stroke-dasharray="10,1,1,1" x1="14.002" y1="170.449" x2="139.872" y2="170.449"/>
		
			<line fill="none" stroke="#666464" stroke-width="0.5" stroke-linejoin="bevel" stroke-miterlimit="10" stroke-dasharray="10,1,1,1" x1="26.33" y1="115.158" x2="139.872" y2="115.158"/>
		
			<line fill="none" stroke="#666464" stroke-width="0.5" stroke-linejoin="bevel" stroke-miterlimit="10" stroke-dasharray="10,1,1,1" x1="55.214" y1="9.872" x2="55.214" y2="389.886"/>
		
			<line fill="none" stroke="#666464" stroke-width="0.5" stroke-linejoin="bevel" stroke-miterlimit="10" stroke-dasharray="10,1,1,1" x1="110.275" y1="50.459" x2="110.276" y2="347.459"/>
		
			<line fill="none" stroke="#666464" stroke-width="0.5" stroke-linejoin="bevel" stroke-miterlimit="10" stroke-dasharray="10,1,1,1" x1="1.488" y1="58.416" x2="139.872" y2="58.416"/>
		
			<line fill="none" stroke="#666464" stroke-width="0.5" stroke-linejoin="bevel" stroke-miterlimit="10" stroke-dasharray="10,1,1,1" x1="1.488" y1="341.916" x2="139.872" y2="341.88"/>
		
			<line fill="none" stroke="#666464" stroke-width="0.5" stroke-linejoin="bevel" stroke-miterlimit="10" stroke-dasharray="10,1,1,1" x1="26.225" y1="313.534" x2="139.872" y2="313.534"/>
		
			<line fill="none" stroke="#666464" stroke-width="0.5" stroke-linejoin="bevel" stroke-miterlimit="10" stroke-dasharray="10,1,1,1" x1="139.872" y1="192.146" x2="31.537" y2="192.146"/>
		
			<line fill="none" stroke="#666464" stroke-width="0.5" stroke-linejoin="bevel" stroke-miterlimit="10" stroke-dasharray="10,1,1,1" x1="14.002" y1="228.494" x2="139.872" y2="228.494"/>
		
			<line fill="none" stroke="#666464" stroke-width="0.5" stroke-linejoin="bevel" stroke-miterlimit="10" stroke-dasharray="10,1,1,1" x1="31.537" y1="206.323" x2="139.872" y2="206.323"/>
		
			<line fill="none" stroke="#666464" stroke-width="0.5" stroke-linejoin="bevel" stroke-miterlimit="10" stroke-dasharray="10,1,1,1" x1="41.042" y1="199.234" x2="139.872" y2="199.234"/>
		
			<line fill="none" stroke="#666464" stroke-width="0.5" stroke-linejoin="bevel" stroke-miterlimit="10" stroke-dasharray="10,1,1,1" x1="81.216" y1="367.301" x2="29.216" y2="367.301"/>
		
			<line fill="none" stroke="#666464" stroke-width="0.5" stroke-linejoin="bevel" stroke-miterlimit="10" stroke-dasharray="10,1,1,1" x1="43.167" y1="188.217" x2="43.159" y2="9.872"/>
		
			<line fill="none" stroke="#666464" stroke-width="0.5" stroke-linejoin="bevel" stroke-miterlimit="10" stroke-dasharray="10,1,1,1" x1="40.332" y1="140.972" x2="40.324" y2="0.539"/>
		
			<line fill="none" stroke="#666464" stroke-width="0.5" stroke-linejoin="bevel" stroke-miterlimit="10" stroke-dasharray="10,1,1,1" x1="35.371" y1="407.755" x2="35.363" y2="9.872"/>
		
			<line fill="none" stroke="#666464" stroke-width="0.5" stroke-linejoin="bevel" stroke-miterlimit="10" stroke-dasharray="10,1,1,1" x1="75.064" y1="407.755" x2="75.057" y2="9.872"/>
		
			<line fill="none" stroke="#666464" stroke-width="0.5" stroke-linejoin="bevel" stroke-miterlimit="10" stroke-dasharray="10,1,1,1" x1="70.104" y1="140.972" x2="70.096" y2="0.539"/>
		
			<line fill="none" stroke="#666464" stroke-width="0.5" stroke-linejoin="bevel" stroke-miterlimit="10" stroke-dasharray="10,1,1,1" x1="67.27" y1="188.217" x2="67.262" y2="9.872"/>
		
			<line fill="none" stroke="#666464" stroke-width="0.5" stroke-linejoin="bevel" stroke-miterlimit="10" stroke-dasharray="10,1,1,1" x1="38.207" y1="292.367" x2="38.201" y2="397.38"/>
		
			<line fill="none" stroke="#666464" stroke-width="0.5" stroke-linejoin="bevel" stroke-miterlimit="10" stroke-dasharray="10,1,1,1" x1="72.223" y1="292.367" x2="72.217" y2="397.38"/>
		
			<line fill="none" stroke="#666464" stroke-width="0.5" stroke-linejoin="bevel" stroke-miterlimit="10" stroke-dasharray="10,1,1,1" x1="41.042" y1="219.228" x2="41.036" y2="387.307"/>
		
			<line fill="none" stroke="#666464" stroke-width="0.5" stroke-linejoin="bevel" stroke-miterlimit="10" stroke-dasharray="10,1,1,1" x1="69.395" y1="219.228" x2="69.389" y2="387.307"/>
		
			<line fill="none" stroke="#666464" stroke-width="0.5" stroke-linejoin="bevel" stroke-miterlimit="10" stroke-dasharray="10,1,1,1" x1="81.214" y1="32.373" x2="29.214" y2="32.373"/>
	</g>
	<g id="寸法線_5_">
		<g>
			<g>
				
					<line fill="none" stroke="#000000" stroke-width="0.5" stroke-linejoin="bevel" x1="22.202" y1="168.234" x2="22.2" y2="60.63"/>
				<g>
					<polygon points="22.897,167.738 22.172,170.449 21.445,167.739 					"/>
				</g>
				<g>
					<polygon points="22.896,61.125 22.17,58.416 21.443,61.126 					"/>
				</g>
			</g>
		</g>
		<g>
			<text transform="matrix(0 -1 1 0 20.2095 118.3901)" font-family="'TimesNewRomanPSMT'" font-size="8">40</text>
			<text transform="matrix(0 -1 1 0 20.2095 118.3901)" font-family="'TimesNewRomanPSMT'" font-size="8">40</text>
		</g>
		<g>
			<g>
				
					<line fill="none" stroke="#000000" stroke-width="0.5" stroke-linejoin="bevel" x1="22.202" y1="339.665" x2="22.2" y2="230.709"/>
				<g>
					<polygon points="22.897,339.17 22.172,341.88 21.445,339.17 					"/>
				</g>
				<g>
					<polygon points="22.896,231.204 22.17,228.494 21.443,231.205 					"/>
				</g>
			</g>
		</g>
		<g>
			<text transform="matrix(0 -1 1 0 19.667 289.1465)" font-family="'TimesNewRomanPSMT'" font-size="8">40</text>
			<text transform="matrix(0 -1 1 0 19.667 289.1465)" font-family="'TimesNewRomanPSMT'" font-size="8">40</text>
		</g>
		<g>
			<g>
				
					<line fill="none" stroke="#000000" stroke-width="0.5" stroke-linejoin="bevel" x1="31.509" y1="112.657" x2="31.507" y2="60.922"/>
				<g>
					<polygon points="32.204,112.162 31.479,114.872 30.752,112.162 					"/>
				</g>
				<g>
					<polygon points="32.203,61.417 31.477,58.707 30.75,61.417 					"/>
				</g>
			</g>
		</g>
		<g>
			<text transform="matrix(0 -1 1 0 29.5029 90.7476)" font-family="'TimesNewRomanPSMT'" font-size="8">20</text>
			<text transform="matrix(0 -1 1 0 29.5029 90.7476)" font-family="'TimesNewRomanPSMT'" font-size="8">20</text>
		</g>
		<g>
			<g>
				<g>
					<polyline fill="none" stroke="#000000" stroke-width="0.5" stroke-linejoin="bevel" points="91.476,389.886 77.968,389.886 
						47.159,359.076 					"/>
					<g>
						<polygon points="48.001,358.935 45.571,357.531 46.974,359.962 						"/>
					</g>
				</g>
			</g>
			<text transform="matrix(1 0 0 1 78.498 388.3008)" font-family="'TimesNewRomanPSMT'" font-size="8">Φ10</text>
		</g>
		<g>
			<g>
				
					<line fill="none" stroke="#000000" stroke-width="0.5" stroke-linejoin="bevel" x1="32.108" y1="339.729" x2="32.109" y2="315.749"/>
				<g>
					<polygon points="32.805,339.232 32.078,341.943 31.352,339.232 					"/>
				</g>
				<g>
					<polygon points="32.805,316.244 32.079,313.534 31.353,316.244 					"/>
				</g>
			</g>
		</g>
		<g>
			<text transform="matrix(0 -1 1 0 30.6826 331.6973)" font-family="'TimesNewRomanPSMT'" font-size="8">10</text>
			<text transform="matrix(0 -1 1 0 30.6826 331.6973)" font-family="'TimesNewRomanPSMT'" font-size="8">10</text>
		</g>
		<g>
			<g>
				<g>
					<polyline fill="none" stroke="#000000" stroke-width="0.5" stroke-linejoin="bevel" points="20.901,220.508 33.433,220.508 
						48.256,205.738 					"/>
					<g>
						<polygon points="48.396,206.58 49.804,204.153 47.371,205.552 						"/>
					</g>
				</g>
			</g>
			<text transform="matrix(1 0 0 1 22.4023 219.127)" font-family="'TimesNewRomanPSMT'" font-size="8">Φ5</text>
		</g>
		<g>
			<g>
				<g>
					<polyline fill="none" stroke="#000000" stroke-width="0.5" stroke-linejoin="bevel" points="15.041,186.126 27.572,186.126 
						42.396,171.356 					"/>
					<g>
						<polygon points="42.536,172.198 43.943,169.771 41.511,171.169 						"/>
					</g>
				</g>
			</g>
			<text transform="matrix(1 0 0 1 16.542 184.7427)" font-family="'TimesNewRomanPSMT'" font-size="8">M8</text>
		</g>
		<g>
			<g>
				
					<line fill="none" stroke="#000000" stroke-width="0.5" stroke-linejoin="bevel" x1="9.626" y1="60.63" x2="9.626" y2="339.665"/>
				<g>
					<polygon points="8.93,61.125 9.656,58.415 10.383,61.125 					"/>
				</g>
				<g>
					<polygon points="8.93,339.17 9.656,341.88 10.383,339.17 					"/>
				</g>
			</g>
		</g>
		<g>
			<text transform="matrix(0 -1 1 0 6.6484 206.1064)" font-family="'TimesNewRomanPSMT'" font-size="8">100</text>
			<text transform="matrix(0 -1 1 0 6.6484 206.1064)" font-family="'TimesNewRomanPSMT'" font-size="8">100</text>
		</g>
		<g>
			<g>
				
					<line fill="none" stroke="#000000" stroke-width="0.5" stroke-linejoin="bevel" x1="72.841" y1="401.076" x2="37.587" y2="401.076"/>
				<g>
					<polygon points="72.346,400.381 75.056,401.106 72.346,401.834 					"/>
				</g>
				<g>
					<polygon points="38.082,400.381 35.372,401.106 38.082,401.834 					"/>
				</g>
			</g>
		</g>
		<g>
			<text transform="matrix(1 0 0 1 51.126 407.8984)" font-family="'TimesNewRomanPSMT'" font-size="8">14</text>
			<text transform="matrix(1 0 0 1 51.126 407.8984)" font-family="'TimesNewRomanPSMT'" font-size="8">14</text>
		</g>
		<g>
			<g>
				
					<line fill="none" stroke="#000000" stroke-width="0.5" stroke-linejoin="bevel" x1="70.007" y1="392.371" x2="40.421" y2="392.371"/>
				<g>
					<polygon points="69.512,391.675 72.222,392.4 69.512,393.127 					"/>
				</g>
				<g>
					<polygon points="40.916,391.675 38.206,392.4 40.916,393.127 					"/>
				</g>
			</g>
		</g>
		<g>
			<text transform="matrix(1 0 0 1 51.126 399.3115)" font-family="'TimesNewRomanPSMT'" font-size="8">12</text>
			<text transform="matrix(1 0 0 1 51.126 399.3115)" font-family="'TimesNewRomanPSMT'" font-size="8">12</text>
		</g>
		<g>
			<g>
				<g>
					<polyline fill="none" stroke="#000000" stroke-width="0.5" stroke-linejoin="bevel" points="91.974,53.872 76.714,53.872 
						48.73,25.89 					"/>
					<g>
						<polygon points="49.572,25.748 47.143,24.345 48.545,26.775 						"/>
					</g>
				</g>
			</g>
			<text transform="matrix(0.9947 0 0 1 77.2441 52.2871)" font-family="'TimesNewRomanPSMT'" font-size="8">Φ8.5</text>
		</g>
		<g>
			<g>
				
					<line fill="none" stroke="#000000" stroke-width="0.5" stroke-linejoin="bevel" x1="67.881" y1="8.882" x2="42.539" y2="8.882"/>
				<g>
					<polygon points="67.386,8.186 70.096,8.912 67.386,9.639 					"/>
				</g>
				<g>
					<polygon points="43.034,8.186 40.324,8.912 43.034,9.639 					"/>
				</g>
			</g>
		</g>
		<g>
			<text transform="matrix(1 0 0 1 48.2095 6.6484)" font-family="'TimesNewRomanPSMT'" font-size="8">10.5</text>
			<text transform="matrix(1 0 0 1 48.2095 6.6484)" font-family="'TimesNewRomanPSMT'" font-size="8">10.5</text>
		</g>
	</g>
	<g id="部品D_xFF08_銛先基部_xFF09__2_">
		<g>
			<circle fill="none" stroke="#000000" stroke-miterlimit="10" cx="55.214" cy="32.374" r="19.843"/>
		</g>
		<polygon fill="none" stroke="#000000" stroke-linecap="round" stroke-linejoin="bevel" stroke-miterlimit="10" points="
			124.448,341.943 124.448,228.559 110.274,220.375 96.102,228.559 96.102,341.943 		"/>
		<g>
			
				<line fill="none" stroke="#000000" stroke-linejoin="bevel" stroke-miterlimit="10" x1="130.118" y1="206.396" x2="90.433" y2="206.396"/>
			
				<line fill="none" stroke="#000000" stroke-linejoin="bevel" stroke-miterlimit="10" x1="90.433" y1="192.223" x2="130.118" y2="192.223"/>
		</g>
		<circle fill="none" stroke="#000000" stroke-linejoin="bevel" stroke-miterlimit="10" cx="55.214" cy="199.309" r="7.086"/>
		<polygon fill="none" stroke="#000000" stroke-linecap="round" stroke-linejoin="bevel" stroke-miterlimit="10" points="
			69.388,341.943 69.388,228.559 55.214,220.375 41.041,228.559 41.041,341.943 		"/>
		<circle fill="none" stroke="#000000" stroke-linejoin="bevel" stroke-miterlimit="10" cx="55.215" cy="367.301" r="19.843"/>
		<circle fill="none" stroke="#000000" stroke-linejoin="bevel" stroke-miterlimit="10" cx="55.215" cy="367.302" r="14.173"/>
		<circle fill="none" stroke="#000000" cx="55.215" cy="367.301" r="17.008"/>
		<g>
			<polygon fill="none" stroke="#000000" stroke-linecap="round" stroke-linejoin="bevel" stroke-miterlimit="10" points="
				40.323,58.707 35.372,172.1 35.372,313.598 38.207,341.943 72.222,341.943 75.057,313.598 75.057,171.753 70.105,58.707 			"/>
			<g>
				<g>
					<g>
						<polyline fill="none" stroke="#000000" stroke-linecap="round" stroke-linejoin="bevel" stroke-miterlimit="10" points="
							46.427,115.971 43.867,117.444 46.427,118.917 43.867,120.389 46.427,121.863 43.867,123.335 46.427,124.808 43.867,126.281 
							46.427,127.754 43.867,129.227 46.427,130.699 43.867,132.172 46.427,133.646 43.867,135.118 46.427,136.591 43.867,138.064 
							46.427,139.537 43.867,141.009 46.427,142.482 43.867,143.955 46.427,145.428 						"/>
						<polyline fill="none" stroke="#000000" stroke-linecap="round" stroke-linejoin="bevel" stroke-miterlimit="10" points="
							66.562,145.428 64.01,143.955 66.562,142.482 64.01,141.009 66.562,139.537 64.01,138.064 66.562,136.591 64.01,135.118 
							66.562,133.646 64.01,132.172 66.562,130.699 64.01,129.227 66.562,127.754 64.01,126.281 66.562,124.808 64.01,123.335 
							66.562,121.863 64.01,120.389 66.562,118.917 64.01,117.444 66.562,115.971 						"/>
						
							<line fill="none" stroke="#000000" stroke-linecap="round" stroke-linejoin="bevel" stroke-miterlimit="10" x1="66.562" y1="145.428" x2="43.867" y2="143.955"/>
						<path fill="none" stroke="#000000" stroke-linecap="round" stroke-linejoin="bevel" stroke-miterlimit="10" d="
							M66.562,115.971"/>
						
							<line fill="none" stroke="#000000" stroke-linecap="round" stroke-linejoin="bevel" stroke-miterlimit="10" x1="66.562" y1="118.917" x2="43.867" y2="117.444"/>
						
							<line fill="none" stroke="#000000" stroke-linecap="round" stroke-linejoin="bevel" stroke-miterlimit="10" x1="66.562" y1="121.863" x2="43.867" y2="120.389"/>
						
							<line fill="none" stroke="#000000" stroke-linecap="round" stroke-linejoin="bevel" stroke-miterlimit="10" x1="66.562" y1="124.808" x2="43.867" y2="123.335"/>
						
							<line fill="none" stroke="#000000" stroke-linecap="round" stroke-linejoin="bevel" stroke-miterlimit="10" x1="66.562" y1="127.754" x2="43.867" y2="126.281"/>
						
							<line fill="none" stroke="#000000" stroke-linecap="round" stroke-linejoin="bevel" stroke-miterlimit="10" x1="66.562" y1="130.699" x2="43.867" y2="129.227"/>
						
							<line fill="none" stroke="#000000" stroke-linecap="round" stroke-linejoin="bevel" stroke-miterlimit="10" x1="66.562" y1="133.646" x2="43.867" y2="132.172"/>
						
							<line fill="none" stroke="#000000" stroke-linecap="round" stroke-linejoin="bevel" stroke-miterlimit="10" x1="66.343" y1="136.716" x2="43.867" y2="135.118"/>
						
							<line fill="none" stroke="#000000" stroke-linecap="round" stroke-linejoin="bevel" stroke-miterlimit="10" x1="66.392" y1="139.439" x2="43.867" y2="138.064"/>
						
							<line fill="none" stroke="#000000" stroke-linecap="round" stroke-linejoin="bevel" stroke-miterlimit="10" x1="66.562" y1="142.482" x2="43.867" y2="141.009"/>
						<g>
							<polyline fill="none" stroke="#000000" stroke-linecap="round" stroke-linejoin="bevel" stroke-miterlimit="10" points="
								66.562,157.211 64.01,155.738 66.562,154.265 64.01,152.792 66.562,151.32 64.01,149.847 66.562,148.374 64.01,146.901 
								66.562,145.428 							"/>
							<polyline fill="none" stroke="#000000" stroke-linecap="round" stroke-linejoin="bevel" stroke-miterlimit="10" points="
								46.427,145.428 43.867,146.901 46.427,148.374 43.867,149.847 46.427,151.32 43.867,152.792 46.427,154.265 43.867,155.738 
								46.427,157.211 							"/>
							
								<line fill="none" stroke="#000000" stroke-linecap="round" stroke-linejoin="bevel" stroke-miterlimit="10" x1="66.562" y1="157.211" x2="43.867" y2="155.738"/>
							<path fill="none" stroke="#000000" stroke-linecap="round" stroke-linejoin="bevel" stroke-miterlimit="10" d="
								M66.562,145.428"/>
							
								<line fill="none" stroke="#000000" stroke-linecap="round" stroke-linejoin="bevel" stroke-miterlimit="10" x1="66.343" y1="148.5" x2="43.867" y2="146.901"/>
							
								<line fill="none" stroke="#000000" stroke-linecap="round" stroke-linejoin="bevel" stroke-miterlimit="10" x1="66.392" y1="151.222" x2="43.867" y2="149.847"/>
							
								<line fill="none" stroke="#000000" stroke-linecap="round" stroke-linejoin="bevel" stroke-miterlimit="10" x1="66.562" y1="154.265" x2="43.867" y2="152.792"/>
						</g>
						<g>
							<polyline fill="none" stroke="#000000" stroke-linecap="round" stroke-linejoin="bevel" stroke-miterlimit="10" points="
								66.562,166.048 64.01,164.575 66.562,163.103 64.01,161.63 66.562,160.156 64.01,158.684 66.562,157.211 							"/>
							<polyline fill="none" stroke="#000000" stroke-linecap="round" stroke-linejoin="bevel" stroke-miterlimit="10" points="
								46.427,157.211 43.867,158.684 46.427,160.156 43.867,161.63 46.427,163.103 43.867,164.575 46.427,166.048 							"/>
							<path fill="none" stroke="#000000" stroke-linecap="round" stroke-linejoin="bevel" stroke-miterlimit="10" d="
								M66.562,157.211"/>
							
								<line fill="none" stroke="#000000" stroke-linecap="round" stroke-linejoin="bevel" stroke-miterlimit="10" x1="66.343" y1="160.282" x2="43.867" y2="158.684"/>
							
								<line fill="none" stroke="#000000" stroke-linecap="round" stroke-linejoin="bevel" stroke-miterlimit="10" x1="66.392" y1="163.004" x2="43.867" y2="161.63"/>
							<polyline fill="none" stroke="#000000" stroke-linecap="round" stroke-linejoin="bevel" stroke-miterlimit="10" points="
								43.867,164.575 66.562,166.048 66.562,166.123 							"/>
						</g>
					</g>
					<polyline fill="none" stroke="#000000" stroke-linejoin="bevel" stroke-miterlimit="10" points="45.063,169.806 
						50.007,172.655 55.224,175.666 60.439,172.655 66.399,169.214 					"/>
					<g>
						<polyline fill="none" stroke="#000000" stroke-linecap="round" stroke-linejoin="bevel" stroke-miterlimit="10" points="
							66.562,168.993 64.01,167.521 66.562,166.048 						"/>
						<polyline fill="none" stroke="#000000" stroke-linecap="round" stroke-linejoin="bevel" stroke-miterlimit="10" points="
							46.427,166.048 43.867,167.521 46.427,168.993 45.085,169.765 						"/>
						<path fill="none" stroke="#000000" stroke-linecap="round" stroke-linejoin="bevel" stroke-miterlimit="10" d="
							M66.562,166.048"/>
						
							<line fill="none" stroke="#000000" stroke-linecap="round" stroke-linejoin="bevel" stroke-miterlimit="10" x1="66.343" y1="169.119" x2="43.867" y2="167.521"/>
					</g>
				</g>
				<polyline fill="none" stroke="#000000" stroke-miterlimit="10" points="65.802,115.4 67.262,115.4 67.262,58.707 43.167,58.707 
					43.167,115.4 45.29,115.4 46.427,115.971 				"/>
			</g>
		</g>
		<path fill="none" stroke="#000000" stroke-miterlimit="10" d="M66.562,115.68"/>
		<circle fill="none" stroke="#000000" stroke-miterlimit="10" cx="55.146" cy="32.373" r="12.047"/>
		<circle fill="none" stroke="#000000" stroke-miterlimit="10" cx="55.147" cy="32.374" r="14.882"/>
		<g>
			<polygon fill="none" stroke="#000000" stroke-linecap="round" stroke-linejoin="bevel" stroke-miterlimit="10" points="
				95.316,58.416 90.365,171.809 90.365,313.306 93.2,341.651 127.215,341.651 130.05,313.306 130.05,171.461 125.099,58.416 			"/>
			<g>
				<g>
					<g>
						<polyline fill="none" stroke="#000000" stroke-linecap="round" stroke-linejoin="bevel" stroke-miterlimit="10" points="
							101.42,115.68 98.86,117.152 101.42,118.625 98.86,120.098 101.42,121.571 98.86,123.044 101.42,124.517 98.86,125.99 
							101.42,127.462 98.86,128.935 101.42,130.408 98.86,131.88 101.42,133.354 98.86,134.827 101.42,136.299 98.86,137.772 
							101.42,139.245 98.86,140.718 101.42,142.19 98.86,143.663 101.42,145.137 						"/>
						<polyline fill="none" stroke="#000000" stroke-linecap="round" stroke-linejoin="bevel" stroke-miterlimit="10" points="
							121.555,145.137 119.003,143.663 121.555,142.19 119.003,140.718 121.555,139.245 119.003,137.772 121.555,136.299 
							119.003,134.827 121.555,133.354 119.003,131.88 121.555,130.408 119.003,128.935 121.555,127.462 119.003,125.99 
							121.555,124.517 119.003,123.044 121.555,121.571 119.003,120.098 121.555,118.625 119.003,117.152 121.555,115.68 						"/>
						
							<line fill="none" stroke="#000000" stroke-linecap="round" stroke-linejoin="bevel" stroke-miterlimit="10" x1="121.555" y1="145.137" x2="98.86" y2="143.663"/>
						<path fill="none" stroke="#000000" stroke-linecap="round" stroke-linejoin="bevel" stroke-miterlimit="10" d="
							M121.555,115.68"/>
						
							<line fill="none" stroke="#000000" stroke-linecap="round" stroke-linejoin="bevel" stroke-miterlimit="10" x1="121.555" y1="118.625" x2="98.86" y2="117.152"/>
						
							<line fill="none" stroke="#000000" stroke-linecap="round" stroke-linejoin="bevel" stroke-miterlimit="10" x1="121.555" y1="121.571" x2="98.86" y2="120.098"/>
						
							<line fill="none" stroke="#000000" stroke-linecap="round" stroke-linejoin="bevel" stroke-miterlimit="10" x1="121.555" y1="124.517" x2="98.86" y2="123.044"/>
						
							<line fill="none" stroke="#000000" stroke-linecap="round" stroke-linejoin="bevel" stroke-miterlimit="10" x1="121.555" y1="127.462" x2="98.86" y2="125.99"/>
						
							<line fill="none" stroke="#000000" stroke-linecap="round" stroke-linejoin="bevel" stroke-miterlimit="10" x1="121.555" y1="130.408" x2="98.86" y2="128.935"/>
						
							<line fill="none" stroke="#000000" stroke-linecap="round" stroke-linejoin="bevel" stroke-miterlimit="10" x1="121.555" y1="133.354" x2="98.86" y2="131.88"/>
						
							<line fill="none" stroke="#000000" stroke-linecap="round" stroke-linejoin="bevel" stroke-miterlimit="10" x1="121.336" y1="136.425" x2="98.86" y2="134.827"/>
						
							<line fill="none" stroke="#000000" stroke-linecap="round" stroke-linejoin="bevel" stroke-miterlimit="10" x1="121.385" y1="139.147" x2="98.86" y2="137.772"/>
						
							<line fill="none" stroke="#000000" stroke-linecap="round" stroke-linejoin="bevel" stroke-miterlimit="10" x1="121.555" y1="142.19" x2="98.86" y2="140.718"/>
						<g>
							<polyline fill="none" stroke="#000000" stroke-linecap="round" stroke-linejoin="bevel" stroke-miterlimit="10" points="
								121.555,156.919 119.003,155.446 121.555,153.974 119.003,152.501 121.555,151.028 119.003,149.556 121.555,148.082 
								119.003,146.609 121.555,145.137 							"/>
							<polyline fill="none" stroke="#000000" stroke-linecap="round" stroke-linejoin="bevel" stroke-miterlimit="10" points="
								101.42,145.137 98.86,146.609 101.42,148.082 98.86,149.556 101.42,151.028 98.86,152.501 101.42,153.974 98.86,155.446 
								101.42,156.919 							"/>
							
								<line fill="none" stroke="#000000" stroke-linecap="round" stroke-linejoin="bevel" stroke-miterlimit="10" x1="121.555" y1="156.919" x2="98.86" y2="155.446"/>
							<path fill="none" stroke="#000000" stroke-linecap="round" stroke-linejoin="bevel" stroke-miterlimit="10" d="
								M121.555,145.137"/>
							
								<line fill="none" stroke="#000000" stroke-linecap="round" stroke-linejoin="bevel" stroke-miterlimit="10" x1="121.336" y1="148.208" x2="98.86" y2="146.609"/>
							
								<line fill="none" stroke="#000000" stroke-linecap="round" stroke-linejoin="bevel" stroke-miterlimit="10" x1="121.385" y1="150.93" x2="98.86" y2="149.556"/>
							
								<line fill="none" stroke="#000000" stroke-linecap="round" stroke-linejoin="bevel" stroke-miterlimit="10" x1="121.555" y1="153.974" x2="98.86" y2="152.501"/>
						</g>
						<g>
							<polyline fill="none" stroke="#000000" stroke-linecap="round" stroke-linejoin="bevel" stroke-miterlimit="10" points="
								121.555,165.756 119.003,164.284 121.555,162.811 119.003,161.338 121.555,159.865 119.003,158.392 121.555,156.919 							
								"/>
							<polyline fill="none" stroke="#000000" stroke-linecap="round" stroke-linejoin="bevel" stroke-miterlimit="10" points="
								101.42,156.919 98.86,158.392 101.42,159.865 98.86,161.338 101.42,162.811 98.86,164.284 101.42,165.756 							"/>
							<path fill="none" stroke="#000000" stroke-linecap="round" stroke-linejoin="bevel" stroke-miterlimit="10" d="
								M121.555,156.919"/>
							
								<line fill="none" stroke="#000000" stroke-linecap="round" stroke-linejoin="bevel" stroke-miterlimit="10" x1="121.336" y1="159.991" x2="98.86" y2="158.392"/>
							
								<line fill="none" stroke="#000000" stroke-linecap="round" stroke-linejoin="bevel" stroke-miterlimit="10" x1="121.385" y1="162.713" x2="98.86" y2="161.338"/>
							<polyline fill="none" stroke="#000000" stroke-linecap="round" stroke-linejoin="bevel" stroke-miterlimit="10" points="
								98.86,164.284 121.555,165.756 121.555,165.832 							"/>
						</g>
					</g>
					<polyline fill="none" stroke="#000000" stroke-linejoin="bevel" stroke-miterlimit="10" points="100.057,169.515 105,172.363 
						110.217,175.375 115.433,172.363 121.393,168.923 					"/>
					<g>
						<polyline fill="none" stroke="#000000" stroke-linecap="round" stroke-linejoin="bevel" stroke-miterlimit="10" points="
							121.555,168.702 119.003,167.229 121.555,165.756 						"/>
						<polyline fill="none" stroke="#000000" stroke-linecap="round" stroke-linejoin="bevel" stroke-miterlimit="10" points="
							101.42,165.756 98.86,167.229 101.42,168.702 100.078,169.474 						"/>
						<path fill="none" stroke="#000000" stroke-linecap="round" stroke-linejoin="bevel" stroke-miterlimit="10" d="
							M121.555,165.756"/>
						
							<line fill="none" stroke="#000000" stroke-linecap="round" stroke-linejoin="bevel" stroke-miterlimit="10" x1="121.336" y1="168.827" x2="98.86" y2="167.229"/>
					</g>
				</g>
				<polyline fill="none" stroke="#000000" stroke-miterlimit="10" points="120.795,115.108 122.255,115.108 122.255,58.416 
					98.16,58.416 98.16,115.108 100.283,115.108 101.42,115.68 				"/>
			</g>
		</g>
	</g>
</g>
</svg>
