<?xml version="1.0" encoding="utf-8"?>
<!-- Generator: Adobe Illustrator 15.1.0, SVG Export Plug-In . SVG Version: 6.00 Build 0)  -->
<!DOCTYPE svg PUBLIC "-//W3C//DTD SVG 1.1//EN" "http://www.w3.org/Graphics/SVG/1.1/DTD/svg11.dtd">
<svg version="1.1" id="レイヤー_1" xmlns="http://www.w3.org/2000/svg" xmlns:xlink="http://www.w3.org/1999/xlink" x="0px"
	 y="0px" width="600.323px" height="148.895px" viewBox="0 0 600.323 148.895" enable-background="new 0 0 600.323 148.895"
	 xml:space="preserve">
<g>
	
		<line fill="none" stroke="#666464" stroke-width="0.5" stroke-linejoin="bevel" stroke-miterlimit="10" stroke-dasharray="10,1,1,1" x1="548.136" y1="140.61" x2="548.329" y2="0"/>
	
		<line fill="none" stroke="#666464" stroke-width="0.5" stroke-linejoin="bevel" stroke-miterlimit="10" stroke-dasharray="10,1,1,1" x1="463.128" y1="140.61" x2="463.128" y2="42.712"/>
	
		<line fill="none" stroke="#666464" stroke-width="0.5" stroke-linejoin="bevel" stroke-miterlimit="10" stroke-dasharray="10,1,1,1" x1="31.834" y1="140.608" x2="32.028" y2="0"/>
	
		<line fill="none" stroke="#666464" stroke-width="0.5" stroke-linejoin="bevel" stroke-miterlimit="10" stroke-dasharray="10,1,1,1" x1="491.75" y1="62.997" x2="583.931" y2="62.997"/>
	
		<line fill="none" stroke="#666464" stroke-width="0.5" stroke-linejoin="bevel" stroke-miterlimit="10" stroke-dasharray="10,1,1,1" x1="503.922" y1="74.809" x2="583.868" y2="74.809"/>
	
		<line fill="none" stroke="#666464" stroke-width="0.5" stroke-linejoin="bevel" stroke-miterlimit="10" stroke-dasharray="10,1,1,1" x1="7.341" y1="57.385" x2="595.986" y2="57.385"/>
	
		<line fill="none" stroke="#666464" stroke-width="0.5" stroke-linejoin="bevel" stroke-miterlimit="10" stroke-dasharray="10,1,1,1" x1="7.341" y1="80.521" x2="595.986" y2="80.521"/>
	
		<line fill="none" stroke="#666464" stroke-width="0.5" stroke-linejoin="bevel" stroke-miterlimit="10" stroke-dasharray="10,1,1,1" x1="0" y1="68.954" x2="575.524" y2="68.954"/>
	<g>
		
			<circle fill="none" stroke="#000000" stroke-linecap="round" stroke-linejoin="bevel" stroke-miterlimit="10" cx="315.396" cy="68.966" r="2.834"/>
		
			<line fill="none" stroke="#666464" stroke-width="0.5" stroke-linejoin="bevel" stroke-miterlimit="10" stroke-dasharray="10,1,1,1" x1="315.396" y1="138.11" x2="315.396" y2="26.656"/>
		
			<line fill="none" stroke="#666464" stroke-width="0.5" stroke-linejoin="bevel" stroke-miterlimit="10" stroke-dasharray="10,1,1,1" x1="312.562" y1="138.11" x2="312.562" y2="49.789"/>
		
			<line fill="none" stroke="#666464" stroke-width="0.5" stroke-linejoin="bevel" stroke-miterlimit="10" stroke-dasharray="10,1,1,1" x1="318.23" y1="138.11" x2="318.23" y2="49.789"/>
	</g>
	
		<line fill="none" stroke="#666464" stroke-width="0.5" stroke-linejoin="bevel" stroke-miterlimit="10" stroke-dasharray="10,1,1,1" x1="562.065" y1="95.122" x2="562.065" y2="46.622"/>
	<g>
		<g>
			<g>
				
					<line fill="none" stroke="#000000" stroke-width="0.5" stroke-linejoin="bevel" x1="546.213" y1="23.52" x2="34.146" y2="23.52"/>
				<g>
					<polygon points="545.718,22.824 548.428,23.55 545.718,24.277 					"/>
				</g>
				<g>
					<polygon points="34.641,22.824 31.931,23.549 34.641,24.276 					"/>
				</g>
			</g>
		</g>
		<g>
			<text transform="matrix(1 0 0 1 299.7002 20.6382)" font-family="'TimesNewRomanPSMT'" font-size="8">600</text>
			<text transform="matrix(1 0 0 1 299.7002 20.6382)" font-family="'TimesNewRomanPSMT'" font-size="8">600</text>
		</g>
	</g>
	
		<line fill="none" stroke="#666464" stroke-width="0.5" stroke-linejoin="bevel" stroke-miterlimit="10" stroke-dasharray="10,1,1,1" x1="16.23" y1="87.489" x2="16.23" y2="52.364"/>
	<g>
		<g>
			<g>
				
					<line fill="none" stroke="#000000" stroke-width="0.5" stroke-linejoin="bevel" x1="545.921" y1="35.685" x2="317.61" y2="35.684"/>
				<g>
					<polygon points="545.426,34.989 548.136,35.714 545.426,36.441 					"/>
				</g>
				<g>
					<polygon points="318.105,34.988 315.396,35.713 318.105,36.44 					"/>
				</g>
			</g>
		</g>
		<g>
			<text transform="matrix(1 0 0 1 425.7656 32.7866)" font-family="'TimesNewRomanPSMT'" font-size="8">500</text>
			<text transform="matrix(1 0 0 1 425.7656 32.7866)" font-family="'TimesNewRomanPSMT'" font-size="8">500</text>
		</g>
	</g>
	
		<line fill="none" stroke="#666464" stroke-width="0.5" stroke-linejoin="bevel" stroke-miterlimit="10" stroke-dasharray="10,1,1,1" x1="83.896" y1="138.11" x2="83.896" y2="26.657"/>
	<g>
		<g>
			<g>
				
					<line fill="none" stroke="#000000" stroke-width="0.5" stroke-linejoin="bevel" x1="81.611" y1="37.486" x2="34.081" y2="37.486"/>
				<g>
					<polygon points="81.116,36.79 83.826,37.516 81.116,38.243 					"/>
				</g>
				<g>
					<polygon points="34.576,36.79 31.866,37.516 34.576,38.243 					"/>
				</g>
			</g>
		</g>
		<g>
			<text transform="matrix(1 0 0 1 53.8057 34.5894)" font-family="'TimesNewRomanPSMT'" font-size="8">20</text>
			<text transform="matrix(1 0 0 1 53.8057 34.5894)" font-family="'TimesNewRomanPSMT'" font-size="8">20</text>
		</g>
	</g>
	<g>
		<g>
			<g>
				
					<line fill="none" stroke="#000000" stroke-width="0.5" stroke-linejoin="bevel" x1="545.953" y1="48.063" x2="465.343" y2="48.077"/>
				<g>
					<polygon points="545.458,47.368 548.168,48.093 545.458,48.82 					"/>
				</g>
				<g>
					<polygon points="465.838,47.381 463.128,48.108 465.838,48.834 					"/>
				</g>
			</g>
		</g>
		<g>
			<text transform="matrix(1 0 0 1 501.6484 45.1655)" font-family="'TimesNewRomanPSMT'" font-size="8">30</text>
			<text transform="matrix(1 0 0 1 501.6484 45.1655)" font-family="'TimesNewRomanPSMT'" font-size="8">30</text>
		</g>
	</g>
	<g>
		<g>
			<g>
				
					<line fill="none" stroke="#000000" stroke-width="0.5" stroke-linejoin="bevel" x1="577.109" y1="72.594" x2="577.109" y2="65.211"/>
				<g>
					<polygon points="577.806,72.099 577.079,74.809 576.353,72.099 					"/>
				</g>
				<g>
					<polygon points="577.806,65.708 577.079,62.997 576.353,65.708 					"/>
				</g>
			</g>
		</g>
		<g>
			<text transform="matrix(0 1 -1 0 580.0068 66.9546)" font-family="'TimesNewRomanPSMT'" font-size="8">4</text>
			<text transform="matrix(0 1 -1 0 580.0068 66.9546)" font-family="'TimesNewRomanPSMT'" font-size="8">4</text>
		</g>
	</g>
	<g>
		<g>
			<path fill="none" stroke="#000000" stroke-miterlimit="10" d="M84.511,80.355l372.948,0.163
				c3.118,0.002,8.215-0.167,11.325-0.375l73.695-4.914c3.11-0.207,5.656-2.928,5.656-6.047v-0.458c0-3.118-2.546-5.839-5.656-6.047
				l-73.695-4.915c-3.11-0.207-8.207-0.375-11.325-0.373L84.511,57.678"/>
		</g>
		<g>
			<g>
				<g>
					<polyline fill="none" stroke="#000000" stroke-linecap="round" stroke-linejoin="bevel" stroke-miterlimit="10" points="
						84.511,57.678 84.056,57.616 84.056,59.002 83.384,60.167 81.91,57.616 80.438,60.167 78.965,57.616 77.491,60.167 
						76.019,57.616 74.546,60.167 73.073,57.616 71.601,60.167 70.128,57.616 68.655,60.167 67.183,57.616 65.709,60.167 
						64.236,57.616 62.763,60.167 61.29,57.616 59.817,60.167 58.345,57.616 56.872,60.167 55.399,57.616 53.927,60.167 
						52.454,57.616 50.981,60.167 49.508,57.616 48.035,60.167 46.563,57.616 45.09,60.167 43.617,57.616 42.144,60.167 
						40.671,57.616 39.198,60.167 37.725,57.616 36.252,60.167 34.779,57.616 					"/>
					<polyline fill="none" stroke="#000000" stroke-linecap="round" stroke-linejoin="bevel" stroke-miterlimit="10" points="
						33.806,79.428 34.779,77.741 36.252,80.292 37.725,77.741 39.198,80.292 40.671,77.741 42.144,80.292 43.617,77.741 
						45.09,80.292 46.563,77.741 48.035,80.292 49.508,77.741 50.981,80.292 52.454,77.741 53.927,80.292 55.399,77.741 
						56.872,80.292 58.345,77.741 59.817,80.292 61.29,77.741 62.764,80.292 64.236,77.741 65.709,80.292 67.183,77.741 
						68.655,80.292 70.128,77.741 71.601,80.292 73.073,77.741 74.546,80.292 76.019,77.741 77.491,80.292 78.965,77.741 
						80.438,80.292 81.91,77.741 83.384,80.292 84.056,79.125 84.055,80.292 84.511,80.355 					"/>
					
						<line fill="none" stroke="#000000" stroke-linecap="round" stroke-linejoin="bevel" stroke-miterlimit="10" x1="80.438" y1="80.292" x2="81.91" y2="57.616"/>
					
						<line fill="none" stroke="#000000" stroke-linecap="round" stroke-linejoin="bevel" stroke-miterlimit="10" x1="77.491" y1="80.036" x2="79.073" y2="57.805"/>
					
						<line fill="none" stroke="#000000" stroke-linecap="round" stroke-linejoin="bevel" stroke-miterlimit="10" x1="74.546" y1="80.292" x2="76.019" y2="57.616"/>
					
						<line fill="none" stroke="#000000" stroke-linecap="round" stroke-linejoin="bevel" stroke-miterlimit="10" x1="71.601" y1="80.292" x2="73.073" y2="57.616"/>
					
						<line fill="none" stroke="#000000" stroke-linecap="round" stroke-linejoin="bevel" stroke-miterlimit="10" x1="68.655" y1="80.292" x2="70.128" y2="57.616"/>
					
						<line fill="none" stroke="#000000" stroke-linecap="round" stroke-linejoin="bevel" stroke-miterlimit="10" x1="65.575" y1="80.061" x2="67.183" y2="57.616"/>
					
						<line fill="none" stroke="#000000" stroke-linecap="round" stroke-linejoin="bevel" stroke-miterlimit="10" x1="62.764" y1="79.936" x2="64.236" y2="57.616"/>
					
						<line fill="none" stroke="#000000" stroke-linecap="round" stroke-linejoin="bevel" stroke-miterlimit="10" x1="59.679" y1="80.051" x2="61.458" y2="57.905"/>
					
						<line fill="none" stroke="#000000" stroke-linecap="round" stroke-linejoin="bevel" stroke-miterlimit="10" x1="56.872" y1="80.292" x2="58.486" y2="57.86"/>
					
						<line fill="none" stroke="#000000" stroke-linecap="round" stroke-linejoin="bevel" stroke-miterlimit="10" x1="53.927" y1="80.292" x2="55.399" y2="57.616"/>
					
						<line fill="none" stroke="#000000" stroke-linecap="round" stroke-linejoin="bevel" stroke-miterlimit="10" x1="50.981" y1="80.292" x2="52.309" y2="57.868"/>
					
						<line fill="none" stroke="#000000" stroke-linecap="round" stroke-linejoin="bevel" stroke-miterlimit="10" x1="48.035" y1="80.292" x2="49.508" y2="57.616"/>
					
						<line fill="none" stroke="#000000" stroke-linecap="round" stroke-linejoin="bevel" stroke-miterlimit="10" x1="45.09" y1="80.292" x2="46.563" y2="57.616"/>
					
						<line fill="none" stroke="#000000" stroke-linecap="round" stroke-linejoin="bevel" stroke-miterlimit="10" x1="42.144" y1="80.292" x2="43.617" y2="57.616"/>
					
						<line fill="none" stroke="#000000" stroke-linecap="round" stroke-linejoin="bevel" stroke-miterlimit="10" x1="39.198" y1="80.292" x2="40.671" y2="57.616"/>
					
						<line fill="none" stroke="#000000" stroke-linecap="round" stroke-linejoin="bevel" stroke-miterlimit="10" x1="36.252" y1="80.292" x2="37.725" y2="57.616"/>
					
						<line fill="none" stroke="#000000" stroke-linecap="round" stroke-linejoin="bevel" stroke-miterlimit="10" x1="33.39" y1="79.012" x2="34.779" y2="57.616"/>
				</g>
				
					<line fill="none" stroke="#000000" stroke-linecap="round" stroke-linejoin="bevel" stroke-miterlimit="10" x1="31.834" y1="77.458" x2="33.806" y2="79.428"/>
				
					<line fill="none" stroke="#000000" stroke-linecap="round" stroke-linejoin="bevel" stroke-miterlimit="10" x1="31.833" y1="60.452" x2="34.669" y2="57.616"/>
			</g>
			
				<line fill="none" stroke="#000000" stroke-linecap="round" stroke-linejoin="bevel" stroke-miterlimit="10" x1="31.898" y1="60.452" x2="31.898" y2="77.522"/>
		</g>
	</g>
	<circle fill="none" stroke="#000000" stroke-miterlimit="10" cx="562.065" cy="68.954" r="11.338"/>
	<circle fill="none" stroke="#000000" stroke-miterlimit="10" cx="16.227" cy="68.954" r="11.338"/>
	<g>
		<g>
			<g>
				<line fill="none" stroke="#000000" stroke-miterlimit="10" x1="312.561" y1="124.711" x2="312.561" y2="101.492"/>
			</g>
			<g>
				<line fill="none" stroke="#000000" stroke-miterlimit="10" x1="318.229" y1="124.711" x2="318.229" y2="101.493"/>
			</g>
		</g>
		<g>
			<g>
				<path fill="none" stroke="#000000" stroke-miterlimit="10" d="M84.511,124.389l372.948,0.163
					c3.118,0.001,8.215-0.159,11.327-0.356l73.691-4.668c3.112-0.197,5.658-2.909,5.658-6.027v-0.566
					c0-3.119-2.546-5.831-5.658-6.028l-73.691-4.669c-3.112-0.197-8.209-0.359-11.327-0.361l-372.948-0.163"/>
			</g>
			<g>
				<g>
					<g>
						<polyline fill="none" stroke="#000000" stroke-linecap="round" stroke-linejoin="bevel" stroke-miterlimit="10" points="
							84.511,101.712 84.056,101.649 84.056,103.037 83.383,104.201 81.91,101.649 80.438,104.2 78.965,101.65 77.49,104.2 
							76.018,101.65 74.545,104.2 73.072,101.649 71.6,104.201 70.127,101.65 68.654,104.2 67.182,101.65 65.709,104.201 
							64.236,101.649 62.764,104.201 61.29,101.65 59.817,104.201 58.345,101.649 56.872,104.2 55.399,101.65 53.926,104.201 
							52.453,101.649 50.98,104.2 49.508,101.65 48.035,104.2 46.563,101.649 45.09,104.201 43.616,101.649 42.143,104.201 
							40.67,101.649 39.197,104.2 37.725,101.65 36.251,104.2 34.779,101.649 						"/>
						<polyline fill="none" stroke="#000000" stroke-linecap="round" stroke-linejoin="bevel" stroke-miterlimit="10" points="
							33.805,123.463 34.779,121.774 36.252,124.327 37.725,121.776 39.197,124.327 40.67,121.774 42.143,124.327 43.616,121.774 
							45.09,124.327 46.563,121.774 48.035,124.327 49.508,121.776 50.98,124.327 52.453,121.774 53.926,124.327 55.399,121.776 
							56.872,124.327 58.345,121.774 59.817,124.327 61.29,121.776 62.764,124.327 64.236,121.774 65.709,124.327 67.182,121.776 
							68.653,124.327 70.127,121.776 71.6,124.327 73.072,121.774 74.545,124.327 76.018,121.776 77.49,124.327 78.965,121.776 
							80.437,124.327 81.91,121.776 83.383,124.327 84.056,123.161 84.056,124.327 84.511,124.389 						"/>
						
							<line fill="none" stroke="#000000" stroke-linecap="round" stroke-linejoin="bevel" stroke-miterlimit="10" x1="80.437" y1="124.327" x2="81.91" y2="101.649"/>
						
							<line fill="none" stroke="#000000" stroke-linecap="round" stroke-linejoin="bevel" stroke-miterlimit="10" x1="77.49" y1="124.071" x2="79.073" y2="101.838"/>
						
							<line fill="none" stroke="#000000" stroke-linecap="round" stroke-linejoin="bevel" stroke-miterlimit="10" x1="74.545" y1="124.327" x2="76.018" y2="101.65"/>
						
							<line fill="none" stroke="#000000" stroke-linecap="round" stroke-linejoin="bevel" stroke-miterlimit="10" x1="71.6" y1="124.327" x2="73.072" y2="101.649"/>
						
							<line fill="none" stroke="#000000" stroke-linecap="round" stroke-linejoin="bevel" stroke-miterlimit="10" x1="68.653" y1="124.327" x2="70.127" y2="101.65"/>
						
							<line fill="none" stroke="#000000" stroke-linecap="round" stroke-linejoin="bevel" stroke-miterlimit="10" x1="65.575" y1="124.096" x2="67.182" y2="101.65"/>
						
							<line fill="none" stroke="#000000" stroke-linecap="round" stroke-linejoin="bevel" stroke-miterlimit="10" x1="62.764" y1="123.971" x2="64.236" y2="101.649"/>
						
							<line fill="none" stroke="#000000" stroke-linecap="round" stroke-linejoin="bevel" stroke-miterlimit="10" x1="59.678" y1="124.086" x2="61.457" y2="101.938"/>
						
							<line fill="none" stroke="#000000" stroke-linecap="round" stroke-linejoin="bevel" stroke-miterlimit="10" x1="56.872" y1="124.327" x2="58.486" y2="101.894"/>
						
							<line fill="none" stroke="#000000" stroke-linecap="round" stroke-linejoin="bevel" stroke-miterlimit="10" x1="53.926" y1="124.327" x2="55.399" y2="101.65"/>
						
							<line fill="none" stroke="#000000" stroke-linecap="round" stroke-linejoin="bevel" stroke-miterlimit="10" x1="50.98" y1="124.327" x2="52.309" y2="101.901"/>
						
							<line fill="none" stroke="#000000" stroke-linecap="round" stroke-linejoin="bevel" stroke-miterlimit="10" x1="48.035" y1="124.327" x2="49.508" y2="101.65"/>
						
							<line fill="none" stroke="#000000" stroke-linecap="round" stroke-linejoin="bevel" stroke-miterlimit="10" x1="45.09" y1="124.327" x2="46.563" y2="101.649"/>
						
							<line fill="none" stroke="#000000" stroke-linecap="round" stroke-linejoin="bevel" stroke-miterlimit="10" x1="42.143" y1="124.327" x2="43.616" y2="101.649"/>
						
							<line fill="none" stroke="#000000" stroke-linecap="round" stroke-linejoin="bevel" stroke-miterlimit="10" x1="39.197" y1="124.327" x2="40.67" y2="101.649"/>
						
							<line fill="none" stroke="#000000" stroke-linecap="round" stroke-linejoin="bevel" stroke-miterlimit="10" x1="36.252" y1="124.327" x2="37.725" y2="101.65"/>
						
							<line fill="none" stroke="#000000" stroke-linecap="round" stroke-linejoin="bevel" stroke-miterlimit="10" x1="33.39" y1="123.047" x2="34.779" y2="101.649"/>
					</g>
					
						<line fill="none" stroke="#000000" stroke-linecap="round" stroke-linejoin="bevel" stroke-miterlimit="10" x1="31.833" y1="121.491" x2="33.805" y2="123.463"/>
					
						<line fill="none" stroke="#000000" stroke-linecap="round" stroke-linejoin="bevel" stroke-miterlimit="10" x1="31.834" y1="104.485" x2="34.668" y2="101.649"/>
				</g>
				
					<line fill="none" stroke="#000000" stroke-linecap="round" stroke-linejoin="bevel" stroke-miterlimit="10" x1="31.898" y1="104.485" x2="31.898" y2="121.557"/>
			</g>
		</g>
	</g>
	<g>
		<g>
			<g>
				<polyline fill="none" stroke="#000000" stroke-width="0.5" stroke-linejoin="bevel" points="9.546,47.989 22.111,47.989 
					30.372,56.331 				"/>
				<g>
					<polygon points="29.529,56.468 31.952,57.883 30.562,55.446 					"/>
				</g>
			</g>
		</g>
		<text transform="matrix(1 0 0 1 9.8374 47.021)" font-family="'TimesNewRomanPSMT'" font-size="8">M8</text>
	</g>
	<g>
		<path fill="#FFFFFF" d="M362.02,148.743l-0.373-1.178l-0.373-1.174l-0.369-1.174l-0.365-1.176l-0.358-1.178l-0.353-1.17
			l-0.344-1.18l-0.333-1.17l-0.321-1.18l-0.31-1.172l-0.297-1.172l-0.278-1.178l-0.265-1.172l-0.248-1.178l-0.229-1.174l-0.21-1.176
			l-0.19-1.174l-0.17-1.178l-0.15-1.172l-0.125-1.178l-0.104-1.174l-0.082-1.174l-0.06-1.174l-0.034-1.172l-0.013-1.18l0.013-1.17
			l0.035-1.178l0.058-1.174l0.083-1.18l0.104-1.169l0.126-1.179l0.149-1.17l0.17-1.179l0.19-1.175l0.21-1.174l0.229-1.176
			l0.248-1.176l0.264-1.173l0.279-1.176l0.297-1.173l0.31-1.174l0.321-1.178l0.333-1.171l0.344-1.179l0.353-1.17l0.358-1.178
			l0.365-1.176l0.369-1.177l0.373-1.173L362.02,90l0.374-1.173l0.372-1.179l0.37-1.172l0.364-1.172l0.359-1.178l0.353-1.174
			l0.343-1.176l0.334-1.176l0.321-1.173l0.311-1.175l0.295-1.18l0.279-1.17l0.266-1.178l0.247-1.172l0.229-1.177l0.21-1.174
			l0.191-1.175l0.169-1.174l0.149-1.179l0.125-1.17l0.105-1.177l0.082-1.177l0.058-1.171l0.035-1.178l0.013-1.171l-0.013-1.179
			l-0.035-1.17l-0.058-1.18l-0.082-1.173l-0.105-1.178l-0.125-1.171l-0.149-1.178l-0.169-1.173l-0.191-1.174l-0.21-1.177
			l-0.229-1.171l-0.247-1.178l-0.266-1.17l-0.279-1.179l-0.295-1.173l-0.311-1.176l-0.321-1.174l-0.334-1.177l-0.343-1.171
			l-0.353-1.178l-0.359-1.173l-0.364-1.176l-0.37-1.175l-0.372-1.178l-0.374-1.171h9.752l0.372,1.171l0.372,1.178l0.369,1.175
			l0.367,1.177l0.359,1.172l0.351,1.178l0.343,1.171l0.335,1.176l0.32,1.175l0.311,1.176l0.295,1.173l0.281,1.179l0.265,1.17
			l0.248,1.178l0.227,1.171l0.212,1.178l0.19,1.174l0.17,1.173l0.147,1.178l0.128,1.171l0.103,1.178l0.083,1.173l0.059,1.18
			l0.035,1.17l0.011,1.179l-0.011,1.171l-0.035,1.178l-0.059,1.171l-0.083,1.177l-0.103,1.176l-0.128,1.171l-0.147,1.179
			l-0.17,1.174l-0.19,1.174l-0.212,1.175l-0.227,1.177l-0.248,1.172l-0.265,1.179l-0.281,1.169l-0.295,1.18l-0.311,1.175
			l-0.32,1.174l-0.335,1.175l-0.343,1.177l-0.351,1.173l-0.359,1.178l-0.367,1.17l-0.368,1.175l-0.373,1.177L371.771,90
			l-0.376,1.176l-0.372,1.174l-0.369,1.176l-0.365,1.176l-0.359,1.178l-0.353,1.17l-0.342,1.18l-0.335,1.17l-0.321,1.178
			l-0.309,1.174l-0.295,1.172l-0.281,1.178l-0.265,1.172l-0.248,1.176l-0.228,1.176l-0.212,1.174l-0.189,1.176l-0.171,1.178
			l-0.149,1.17l-0.125,1.18l-0.104,1.168l-0.081,1.18l-0.06,1.174l-0.034,1.178l-0.013,1.17l0.013,1.178l0.034,1.174l0.06,1.174
			l0.081,1.176l0.104,1.172l0.126,1.178l0.148,1.172l0.171,1.178l0.189,1.174l0.212,1.176l0.228,1.174l0.248,1.178l0.265,1.172
			l0.281,1.178l0.295,1.172l0.308,1.172l0.322,1.18l0.335,1.172l0.342,1.178l0.353,1.17l0.359,1.178l0.365,1.176l0.369,1.174
			l0.372,1.174l0.376,1.178H362.02z"/>
		<path fill="none" stroke="#000000" stroke-miterlimit="10" d="M371.771,148.743l-0.376-1.178l-0.372-1.174l-0.369-1.174
			l-0.365-1.176l-0.359-1.178l-0.353-1.17l-0.342-1.178l-0.335-1.172l-0.322-1.18l-0.308-1.172l-0.295-1.172l-0.281-1.178
			l-0.265-1.172l-0.248-1.178l-0.228-1.174l-0.212-1.176l-0.189-1.174l-0.171-1.178l-0.148-1.172l-0.126-1.178l-0.104-1.172
			l-0.081-1.176l-0.06-1.174l-0.034-1.174l-0.013-1.178l0.013-1.17l0.034-1.178l0.06-1.174l0.081-1.18l0.104-1.168l0.125-1.18
			l0.149-1.17l0.171-1.178l0.189-1.176l0.212-1.174l0.228-1.176l0.248-1.176l0.265-1.172l0.281-1.178l0.295-1.172l0.309-1.174
			l0.321-1.178l0.335-1.17l0.342-1.18l0.353-1.17l0.359-1.178l0.365-1.176l0.369-1.176l0.372-1.174L371.771,90l0.372-1.174
			l0.373-1.177l0.368-1.175l0.367-1.17l0.359-1.178l0.351-1.173l0.343-1.177l0.335-1.175l0.32-1.174l0.311-1.175l0.295-1.18
			l0.281-1.169l0.265-1.179l0.248-1.172l0.227-1.177l0.212-1.175l0.19-1.174l0.17-1.174l0.147-1.179l0.128-1.171l0.103-1.176
			l0.083-1.177l0.059-1.171l0.035-1.178l0.011-1.171l-0.011-1.179l-0.035-1.17l-0.059-1.18l-0.083-1.173l-0.103-1.178l-0.128-1.171
			l-0.147-1.178l-0.17-1.173l-0.19-1.174l-0.212-1.178l-0.227-1.171l-0.248-1.178l-0.265-1.17l-0.281-1.179l-0.295-1.173
			l-0.311-1.176l-0.32-1.175l-0.335-1.176l-0.343-1.171l-0.351-1.178l-0.359-1.172l-0.367-1.177l-0.369-1.175l-0.372-1.178
			l-0.372-1.171 M362.02,148.743l-0.373-1.178l-0.373-1.174l-0.369-1.174l-0.365-1.176l-0.358-1.178l-0.353-1.17l-0.344-1.18
			l-0.333-1.17l-0.321-1.18l-0.31-1.172l-0.297-1.172l-0.278-1.178l-0.265-1.172l-0.248-1.178l-0.229-1.174l-0.21-1.176l-0.19-1.174
			l-0.17-1.178l-0.15-1.172l-0.125-1.178l-0.104-1.174l-0.082-1.174l-0.06-1.174l-0.034-1.172l-0.013-1.18l0.013-1.17l0.035-1.178
			l0.058-1.174l0.083-1.18l0.104-1.169l0.126-1.179l0.149-1.17l0.17-1.179l0.19-1.175l0.21-1.174l0.229-1.176l0.248-1.176
			l0.264-1.173l0.279-1.176l0.297-1.173l0.31-1.174l0.321-1.178l0.333-1.171l0.344-1.179l0.353-1.17l0.358-1.178l0.365-1.176
			l0.369-1.177l0.373-1.173L362.02,90l0.374-1.173l0.372-1.179l0.37-1.172l0.364-1.172l0.359-1.178l0.353-1.174l0.343-1.176
			l0.334-1.176l0.321-1.173l0.311-1.175l0.295-1.18l0.279-1.17l0.266-1.178l0.247-1.172l0.229-1.177l0.21-1.174l0.191-1.175
			l0.169-1.174l0.149-1.179l0.125-1.17l0.105-1.177l0.082-1.177l0.058-1.171l0.035-1.178l0.013-1.171l-0.013-1.179l-0.035-1.17
			l-0.058-1.18l-0.082-1.173l-0.105-1.178l-0.125-1.171l-0.149-1.178l-0.169-1.173l-0.191-1.174l-0.21-1.177l-0.229-1.171
			l-0.247-1.178l-0.266-1.17l-0.279-1.179l-0.295-1.173l-0.311-1.176l-0.321-1.174l-0.334-1.177l-0.343-1.171l-0.353-1.178
			l-0.359-1.173l-0.364-1.176l-0.37-1.175l-0.372-1.178l-0.374-1.171"/>
	</g>
	<g>
		<g>
			<g>
				<polyline fill="none" stroke="#000000" stroke-width="0.5" stroke-linejoin="bevel" points="520.385,90.002 530.974,90.002 
					544.547,76.377 				"/>
				<g>
					<polygon points="544.69,77.22 546.089,74.788 543.661,76.195 					"/>
				</g>
			</g>
		</g>
		<text transform="matrix(1 0 0 1 521.084 88.3989)" font-family="'TimesNewRomanPSMT'" font-size="8">R2</text>
	</g>
	<g>
		<g>
			<g>
				<polyline fill="none" stroke="#000000" stroke-width="0.5" stroke-linejoin="bevel" points="283.28,51.948 296.657,51.948 
					310.981,66.323 				"/>
				<g>
					<polygon points="310.139,66.463 312.566,67.871 311.168,65.438 					"/>
				</g>
			</g>
		</g>
		<text transform="matrix(1 0 0 1 285.9917 50.1196)" font-family="'TimesNewRomanPSMT'" font-size="8">Φ2</text>
	</g>
	<g>
		<g>
			<g>
				
					<line fill="none" stroke="#000000" stroke-width="0.5" stroke-linejoin="bevel" x1="590.777" y1="78.306" x2="590.777" y2="59.6"/>
				<g>
					<polygon points="591.474,77.811 590.747,80.521 590.021,77.811 					"/>
				</g>
				<g>
					<polygon points="591.474,60.095 590.747,57.385 590.021,60.095 					"/>
				</g>
			</g>
		</g>
		<g>
			<text transform="matrix(0 1 -1 0 593.6748 66.9546)" font-family="'TimesNewRomanPSMT'" font-size="8">8</text>
			<text transform="matrix(0 1 -1 0 593.6748 66.9546)" font-family="'TimesNewRomanPSMT'" font-size="8">8</text>
		</g>
	</g>
	
		<line fill="none" stroke="#666464" stroke-width="0.5" stroke-linejoin="bevel" stroke-miterlimit="10" stroke-dasharray="10,1,1,1" x1="16" y1="113.101" x2="591.524" y2="113.102"/>
</g>
</svg>
