<?xml version="1.0" encoding="utf-8"?>
<!-- Generator: Adobe Illustrator 15.1.0, SVG Export Plug-In . SVG Version: 6.00 Build 0)  -->
<!DOCTYPE svg PUBLIC "-//W3C//DTD SVG 1.1//EN" "http://www.w3.org/Graphics/SVG/1.1/DTD/svg11.dtd">
<svg version="1.1" id="レイヤー_1" xmlns="http://www.w3.org/2000/svg" xmlns:xlink="http://www.w3.org/1999/xlink" x="0px"
	 y="0px" width="488.642px" height="76.472px" viewBox="0 0 488.642 76.472" enable-background="new 0 0 488.642 76.472"
	 xml:space="preserve">
<g>
	<g id="スカリ">
		<g>
			
				<line fill="none" stroke="#666464" stroke-width="0.5" stroke-linejoin="bevel" stroke-miterlimit="10" stroke-dasharray="10,1,1,1" x1="484.415" y1="24.081" x2="7.396" y2="24.081"/>
			
				<line fill="none" stroke="#666464" stroke-width="0.5" stroke-linejoin="bevel" stroke-miterlimit="10" stroke-dasharray="10,1,1,1" x1="484.415" y1="38.255" x2="7.393" y2="38.254"/>
			
				<line fill="none" stroke="#666464" stroke-width="0.5" stroke-linejoin="bevel" stroke-miterlimit="10" stroke-dasharray="10,1,1,1" x1="243.654" y1="68.652" x2="243.654" y2="21.96"/>
			
				<line fill="none" stroke="#666464" stroke-width="0.5" stroke-linejoin="bevel" stroke-miterlimit="10" stroke-dasharray="10,1,1,1" x1="249.323" y1="68.653" x2="249.323" y2="21.959"/>
			
				<line fill="none" stroke="#666464" stroke-width="0.5" stroke-linejoin="bevel" stroke-miterlimit="10" stroke-dasharray="10,1,1,1" x1="33.887" y1="70.68" x2="33.887" y2="0.791"/>
			
				<line fill="none" stroke="#666464" stroke-width="0.5" stroke-linejoin="bevel" stroke-miterlimit="10" stroke-dasharray="10,1,1,1" x1="459.088" y1="76.472" x2="459.088" y2="0.254"/>
			
				<line fill="none" stroke="#666464" stroke-width="0.5" stroke-linejoin="bevel" stroke-miterlimit="10" stroke-dasharray="10,1,1,1" x1="475.78" y1="45.333" x2="475.78" y2="18.297"/>
			
				<line fill="none" stroke="#666464" stroke-width="0.5" stroke-linejoin="bevel" stroke-miterlimit="10" stroke-dasharray="10,1,1,1" x1="21.316" y1="44.489" x2="21.316" y2="17.67"/>
			
				<line fill="none" stroke="#666464" stroke-width="0.5" stroke-linejoin="bevel" stroke-miterlimit="10" stroke-dasharray="10,1,1,1" x1="485.877" y1="31.195" x2="11.235" y2="31.195"/>
			
				<line fill="none" stroke="#666464" stroke-width="0.5" stroke-linejoin="bevel" stroke-miterlimit="10" stroke-dasharray="10,1,1,1" x1="246.488" y1="68.652" x2="246.488" y2="21.96"/>
			
				<line fill="none" stroke="#666464" stroke-width="0.5" stroke-linejoin="bevel" stroke-miterlimit="10" stroke-dasharray="10,1,1,1" x1="467.609" y1="55.328" x2="11.234" y2="55.327"/>
			
				<polyline fill="none" stroke="#666464" stroke-width="0.5" stroke-linejoin="bevel" stroke-miterlimit="10" stroke-dasharray="10,1,1,1" points="
				485.533,48.24 459.084,55.328 485.53,62.414 			"/>
		</g>
	</g>
	<g>
		<g>
			<path fill="none" stroke="#000000" stroke-linecap="round" stroke-linejoin="bevel" stroke-miterlimit="10" d="M456.346,31.929
				c1.506-0.403,1.506-1.063,0-1.467l-20.97-5.619c-1.506-0.403-4.014-0.733-5.573-0.733L36.722,24.11
				c-1.56,0-2.835,1.275-2.835,2.834v8.504c0,1.559,1.275,2.834,2.835,2.834H429.8c1.56,0,4.067-0.33,5.573-0.733L456.346,31.929z"
				/>
		</g>
		
			<circle fill="none" stroke="#000000" stroke-linecap="round" stroke-linejoin="bevel" stroke-miterlimit="10" cx="246.485" cy="31.196" r="2.834"/>
		<g>
			
				<circle fill="none" stroke="#000000" stroke-linecap="round" stroke-linejoin="bevel" stroke-miterlimit="10" cx="475.777" cy="31.196" r="7.086"/>
			<circle cx="475.776" cy="31.196" r="1.417"/>
		</g>
		
			<circle fill="none" stroke="#000000" stroke-linecap="round" stroke-linejoin="bevel" stroke-miterlimit="10" cx="21.316" cy="31.196" r="7.086"/>
		<g>
			<path fill="none" stroke="#000000" stroke-linecap="round" stroke-linejoin="bevel" stroke-miterlimit="10" d="M456.346,56.089
				c1.506-0.402,1.506-1.063,0-1.467l-20.97-5.619c-1.506-0.403-4.014-0.733-5.573-0.733L36.722,48.269
				c-1.56,0-2.835,1.275-2.835,2.835v8.505c0,1.559,1.275,2.834,2.835,2.834H429.8c1.56,0,4.067-0.33,5.573-0.733L456.346,56.089z"
				/>
		</g>
		
			<line fill="none" stroke="#000000" stroke-linecap="round" stroke-linejoin="bevel" stroke-miterlimit="10" x1="249.318" y1="48.27" x2="249.319" y2="62.442"/>
		
			<line fill="none" stroke="#000000" stroke-linecap="round" stroke-linejoin="bevel" stroke-miterlimit="10" x1="243.65" y1="48.271" x2="243.65" y2="62.442"/>
	</g>
	<g>
		<g>
			
				<line fill="none" stroke="#000000" stroke-width="0.5" stroke-linejoin="bevel" x1="455.895" y1="9.559" x2="36.102" y2="9.559"/>
			<g>
				<polygon points="455.399,8.863 458.109,9.589 455.399,10.316 				"/>
			</g>
			<g>
				<polygon points="36.597,8.863 33.887,9.589 36.597,10.316 				"/>
			</g>
		</g>
	</g>
	<g>
		<text transform="matrix(1 0 0 1 239.998 6.6484)" font-family="'TimesNewRomanPSMT'" font-size="8">150</text>
		<text transform="matrix(1 0 0 1 239.998 6.6484)" font-family="'TimesNewRomanPSMT'" font-size="8">150</text>
	</g>
	<g>
		<g>
			<line fill="none" stroke="#000000" stroke-width="0.5" stroke-linejoin="bevel" x1="9.525" y1="36.039" x2="9.525" y2="26.324"/>
			<g>
				<polygon points="10.222,35.544 9.495,38.254 8.769,35.544 				"/>
			</g>
			<g>
				<polygon points="10.222,26.819 9.495,24.109 8.769,26.819 				"/>
			</g>
		</g>
	</g>
	<g>
		<text transform="matrix(0 -1 1 0 6.6484 33.249)" font-family="'TimesNewRomanPSMT'" font-size="8">5</text>
		<text transform="matrix(0 -1 1 0 6.6484 33.249)" font-family="'TimesNewRomanPSMT'" font-size="8">5</text>
	</g>
	<g>
		<g>
			<g>
				<polyline fill="none" stroke="#000000" stroke-width="0.5" stroke-linejoin="bevel" points="224.3,21.046 237.266,21.046 
					242.962,26.762 				"/>
				<g>
					<polygon points="242.119,26.901 244.547,28.31 243.148,25.876 					"/>
				</g>
			</g>
		</g>
		<text transform="matrix(1 0 0 1 224.2998 20.04)" font-family="'TimesNewRomanPSMT'" font-size="8">Φ2</text>
	</g>
	<g>
		<g>
			<path fill="none" stroke="#000000" stroke-width="0.5" stroke-linejoin="bevel" d="M480.118,52.111
				c1.025,2.013,1.026,4.414,0.003,6.429"/>
			<g>
				<polygon points="479.773,52.944 478.837,50.3 480.971,52.122 				"/>
			</g>
			<g>
				<polygon points="479.773,57.711 478.837,60.356 480.971,58.533 				"/>
			</g>
		</g>
	</g>
	<g>
		<text transform="matrix(0 1 -1 0 481.9932 50.5967)" font-family="'TimesNewRomanPSMT'" font-size="8">30°</text>
		<text transform="matrix(0 1 -1 0 481.9932 50.5967)" font-family="'TimesNewRomanPSMT'" font-size="8">30°</text>
	</g>
	<g>
		<g>
			<g>
				<polyline fill="none" stroke="#000000" stroke-width="0.5" stroke-linejoin="bevel" points="12.133,69.7 26.92,69.7 
					32.614,63.983 				"/>
				<g>
					<polygon points="32.758,64.826 34.156,62.394 31.729,63.801 					"/>
				</g>
			</g>
		</g>
		<text transform="matrix(1 0 0 1 12.7354 68.2549)" font-family="'TimesNewRomanPSMT'" font-size="8">R1</text>
	</g>
	<g>
		<g>
			<g>
				<polyline fill="none" stroke="#000000" stroke-width="0.5" stroke-linejoin="bevel" points="408.8,71.897 423.587,71.897 
					429.281,66.182 				"/>
				<g>
					<polygon points="429.425,67.024 430.823,64.592 428.396,65.999 					"/>
				</g>
			</g>
		</g>
		<text transform="matrix(1 0 0 1 409.4023 70.4531)" font-family="'TimesNewRomanPSMT'" font-size="8">R1</text>
	</g>
	<g>
		<g>
			<g>
				<polyline fill="none" stroke="#000000" stroke-width="0.5" stroke-linejoin="bevel" points="432.384,71.89 442.973,71.89 
					456.546,58.265 				"/>
				<g>
					<polygon points="456.689,59.107 458.088,56.675 455.66,58.082 					"/>
				</g>
			</g>
		</g>
		<text transform="matrix(1 0 0 1 433.083 70.2861)" font-family="'TimesNewRomanPSMT'" font-size="8">R1</text>
	</g>
</g>
</svg>
